<?xml version="1.0" standalone="no"?>
<!DOCTYPE svg PUBLIC "-//W3C//DTD SVG 1.1//EN" "http://www.w3.org/Graphics/SVG/1.1/DTD/svg11.dtd" >
<svg xmlns="http://www.w3.org/2000/svg" xmlns:xlink="http://www.w3.org/1999/xlink" version="1.1">
<metadata>
Created by FontForge 20170924 at Mon Nov  9 09:06:33 2020
 By www-data
Copyright (C) 2019 by original authors Radcom
</metadata>
<defs>
<font id="Font" horiz-adv-x="900" >
  <font-face 
    font-family="Font"
    font-weight="400"
    font-stretch="normal"
    units-per-em="1000"
    panose-1="0 0 0 0 0 0 0 0 0 0"
    ascent="800"
    descent="-200"
    x-height="500"
    bbox="-492 -234 3028 938"
    underline-thickness="0"
    underline-position="10"
    unicode-range="U+001D-F003"
  />
<missing-glyph horiz-adv-x="0" 
 />
    <glyph glyph-name=".notdef" horiz-adv-x="0" 
 />
    <glyph glyph-name=".notdef" horiz-adv-x="0" 
 />
    <glyph glyph-name="glyph1" horiz-adv-x="0" 
 />
    <glyph glyph-name="glyph2" horiz-adv-x="333" 
 />
    <glyph glyph-name="space" unicode=" " horiz-adv-x="250" 
 />
    <glyph glyph-name="uniE701" unicode="&#xe701;" horiz-adv-x="908" 
d="M61 236v28q0 177 171 310q107 67 223 67q195 0 325 -171q67 -103 67 -206v-28q0 -178 -171 -310q-107 -67 -223 -67q-194 0 -325 171q-67 103 -67 206zM455 73q0 -49 31.5 -78.5t79.5 -29.5h2q79 0 108 86q1 8 1.5 13.5t0.5 10.5q0 89 -99 111h-16q-48 0 -78 -31t-30 -78
v-4zM329 314h16q48 0 78 30.5t30 77.5v4q0 49 -31.5 79t-79.5 30h-2q-78 0 -108 -87q-1 -8 -1.5 -13.5t-0.5 -10.5q0 -87 99 -110zM173 151v-30q0 -69 85 -100q8 -1 13.5 -1.5t10.5 -0.5h8q22 0 41.5 9t34 24.5t23 35.5t8.5 41q0 23 -9 43t-24 35t-35 24t-43 9h-2
q-81 0 -111 -89zM511 370q0 -22 9 -42t24.5 -35.5t35.5 -24.5t42 -9h2q81 0 111 89v31q0 68 -85 99q-15 3 -24 3h-8q-61 0 -96 -65q-11 -25 -11 -46zM717 587h3q125 -27 143 -54q45 -43 45 -96v-13q0 -16 -26 -115h-4q-25 135 -98 217q-7 8 -22.5 23t-40.5 38zM520 -174
q0 4 50 13q125 36 223 150h2q-29 -120 -49 -139q-47 -50 -109 -50h-8q-14 0 -109 24v2zM117 524q22 116 65 145q44 30 89 30h9q11 0 108 -23v-5q-97 -6 -219 -97l-52 -52v2zM0 75q0 23 24 102h2q9 -43 21 -76t28.5 -61.5t39 -55.5t54.5 -58q7 0 11 -9v-2h-2q-118 25 -145 63
q-33 45 -33 84v13zM403 244q9 -45 41 -45h13q44 9 44 43v9q0 37 -50 45q-48 -9 -48 -45v-7z" />
    <glyph glyph-name="uniE702" unicode="&#xe702;" horiz-adv-x="1000" 
d="M339 695q12 -19 12 -35v-70q2 -12 12 -12h269q243 0 357 -287q11 -61 11 -105q0 -266 -286 -374q-43 -12 -82 -12h-427q-12 0 -12 12v146q2 12 12 12h392q174 0 228 175v59q0 47 -19.5 84.5t-51 64t-72.5 41t-85 14.5h-246v-82l-6 -29q-39 8 -345 193v6q4 10 339 199z
" />
    <glyph glyph-name="uniE703" unicode="&#xe703;" horiz-adv-x="625" 
d="M17 380h42h29t19 1q11 -1 24.5 -1h29.5h36h29.5t20.5 1q10 -1 23 -1h29h36h29t23 1q7 -1 19.5 -1h30.5h38q11 0 17 -12v-209q-4 -12 -15 -12h-467q-10 7 -10 13l2 13q0 -1 -2 5l2 10l-2 16q0 3 2 3l-2 17v132q0 24 17 24zM47 597q1 8 1 22v34v31q0 2 11 10h430
q136 -127 136 -142v-633q-3 -21 -16 -21q-31 1 -54.5 1.5t-39.5 0.5q-11 0 -28.5 -0.5t-42.5 -1.5q-7 3 -7 5q17 35 34 35h109q7 3 7 12v8q0 25 -0.5 41t-1.5 23q1 17 1.5 36t0.5 39q0 23 -0.5 40.5t-1.5 28.5q1 11 1.5 28.5t0.5 40.5t-0.5 40.5t-1.5 28.5q1 11 1.5 28.5
t0.5 40.5q0 21 -0.5 39t-1.5 33q1 8 1.5 24.5t0.5 41.5v7q0 10 -12 10q-17 -1 -28.5 -1h-16.5h-13.5t-33.5 1q-2 -1 -5 -1q-20 2 -20 17v105q0 4 -6 5h-360q-6 -1 -6 -10v-230q-1 -7 -12 -7h-14q-9 0 -12 7q0 32 -1 35q1 13 1 25v23v40v34t-1 26zM205 -19v2q0 8 16 8h43
q5 2 5 11v98q0 17 21 17h97q17 0 17 -19v-102q0 -2 5 -5h31q2 0 2 -1l3 1h7q16 0 16 -8q0 -11 -97 -133q-13 -25 -31 -40h-8q-114 145 -127 171zM47 47q1 5 1 18.5v34.5v12q0 3 7 7h24q3 0 7 -7v-162q0 -12 12 -12h106q12 0 31 -33v-2q0 -3 -4 -3q-16 0 -27 -0.5t-18 -1.5
q-19 1 -39 1.5t-40 0.5h-34q-3 0 -7 -2q-18 1 -18 16v70v33.5t-1 29.5zM200 202q0 -5 33 -7q59 0 74 43q4 12 4 17v19q0 20 -23 45q-22 12 -46 12h-2q-40 0 -40 -8v-121zM62 197h28q3 0 3 3v36q0 3 7 7q12 0 24.5 1t23 5t17 12.5t6.5 23.5v3q-6 40 -36 40q0 2 -19 2h-57
q-3 0 -5 -5v-127zM345 197h33l2 8v18q0 3 -2 15q5 11 7 11h43q4 0 4 3v21q-2 5 -11 5h-36q-2 0 -5 5v10q0 3 5 6h43q11 0 11 10v16q0 2 -6 5h-88q-5 -2 -5 -14v-92q0 -3 2 -15q-2 -6 -2 -5q3 -7 5 -7zM235 235l2 17v43q2 5 10 5q26 -8 26 -27v-16q0 -21 -28 -31h-2
q-3 1 -8 9zM93 293q0 3 7 7h12q15 0 19 -10v-7q0 -8 -26 -10q-12 0 -12 12v8z" />
    <glyph glyph-name="uniE704" unicode="&#xe704;" horiz-adv-x="800" 
d="M0 -123v743q3 1 6 19q17 35 47 49q4 4 17 7l2 2h612q3 -3 16 -6q57 -28 57 -92v-344q0 -2 -4 -3q-3 0 -26 18q-10 4 -10 14v321q-5 24 -17 38.5t-39 14.5h-566q-39 -1 -51 -33l-4 -20v-713q5 -24 16.5 -38.5t38.5 -14.5h564q10 0 14 -12q11 -17 11 -21q0 -5 -3 -6h-609
q-1 3 -16 6q-43 23 -54 69q-2 0 -2 2zM451 163q8 29 48 69q28 21 49 28q9 5 43 11h25q31 0 70 -19q42 -23 65 -61.5t23 -85.5q0 -6 1 -10q0 -30 -23 -76q-5 -8 -13.5 -18t-19.5 -23q-37 -30 -72 -36q-19 -6 -33 -6h-16q-42 5 -57 14q-13 4 -27.5 14.5t-27 24t-22 28
t-13.5 27.5q-11 25 -11 68q3 35 11 51zM471 90q6 -35 20 -57q21 -40 77 -60q20 -5 36 -5q63 0 97.5 35t42.5 92v23q-5 27 -17 52q-19 32 -48 49t-64 21v1q-93 0 -133 -82q-11 -30 -11 -47v-22zM172 380q0 23 31 54q32 26 48 27l1 3q-28 29 -28 49q-2 0 -2 13v2q4 28 15 37
q0 7 26 21q15 4 23 4q20 0 45 -19q17 -23 17 -44q0 -35 -30 -62v-3q25 -6 47 -28q33 -28 33 -57q0 -20 -67 -27q-16 -1 -27 -1.5t-17 -0.5q-1 1 -1 3q0 3 25 27l2 5q-23 57 -23 62v1q3 3 4 6l-2 1h-3q-4 0 -5 -1q-1 1 -4 1h-1l-2 -2q0 -2 4 -7v-1q-22 -55 -25 -59v-3
q26 -26 26 -28q1 -1 1 -3l-3 -2q-68 0 -103 18q-5 8 -5 11v3zM190 306q0 1 5 1h336q9 0 15 1q1 -1 3 -1v-2q-1 -6 -24 -12q-18 -9 -43 -24h-284q-23 0 -26 19v2q4 16 18 16zM719 -36q6 6 13 6h1q3 -4 15.5 -25t35.5 -61q3 -2 3 -7q0 -7 -20 -15q-28 -18 -50 -30q-5 0 -26 43
l-31 50v4q2 2 16.5 11t42.5 24zM172 214q0 13 23 18h243q2 0 3 -3q0 -5 -14 -27q0 -2 -8 -8h-227q-20 6 -20 19v1zM172 139q0 11 16 18h203q6 0 10 1q5 -2 5 -5v-3q-1 -30 -8 -30h-203q-23 3 -23 19zM417 -84q0 13 21 18h48q8 0 42 -19q11 -4 20.5 -7t17.5 -6v-3l-3 -3
q-14 1 -25.5 1h-19.5h-85q-16 7 -16 19zM723 -179q4 6 64 38q0 1 5 3h1q7 -4 7 -6v-30q-6 -6 -6 -10q-13 -11 -20 -16h-30l-16 11q-5 7 -5 10zM361 64q0 15 20 18h15q11 0 11 -29q2 0 2 -2q-1 -6 -8 -6h-16q-19 0 -24 14v5z" />
    <glyph glyph-name="uniE705" unicode="&#xe705;" horiz-adv-x="911" 
d="M0 -157v803q0 54 54 54h372q47 0 47 -60v-222h390q48 0 48 -60v-509q0 -48 -48 -48h-821q-42 0 -42 42zM60 640v-779h66v234q0 60 60 60h96q60 0 60 -60v-234h72v779h-354zM551 -139v186q0 48 48 48h114q48 0 48 -48v-186h78v497h-372v-497h84zM192 89v-228h90v228h-90z
M617 -139h84v168h-84v-168zM312 508q0 17 30 30q17 0 30 -30q0 -16 -30 -30q-16 0 -30 30zM132 418q17 0 30 -30q0 -16 -30 -30q-16 0 -30 30q0 17 30 30zM132 538q17 0 30 -30q0 -16 -30 -30q-16 0 -30 30q0 17 30 30zM342 418q17 0 30 -30q0 -16 -30 -30q-16 0 -30 30
q0 17 30 30zM102 268q0 17 30 30q17 0 30 -30q0 -15 -30 -29q-16 0 -30 29zM342 298q17 0 30 -30q0 -15 -30 -29q-16 0 -30 29q0 17 30 30zM210 514q0 6 24 24q27 -10 30 -24v-12q0 -6 -24 -24q-28 12 -30 24v12zM210 394q0 6 24 24q27 -10 30 -24v-12q0 -6 -24 -24
q-28 12 -30 24v12zM210 274q0 6 24 24q27 -10 30 -24v-12q0 -6 -24 -23q-28 10 -30 23v12z" />
    <glyph glyph-name="uniE706" unicode="&#xe706;" horiz-adv-x="744" 
d="M62 426q11 0 34 29q12 0 16 40q32 107 109 157q74 48 152 48q130 0 222 -122q29 -41 44 -119q8 -2 31 -29q22 0 58 -54q16 -33 16 -74q0 -79 -67 -119q-9 0 -25 -22q-16 -6 -16 -30q-15 -55 -49 -76q-34 -25 -80 -25h-48q-19 -30 -49 -30h-59q-53 6 -53 46q0 20 14 32
t34 12h66q27 0 47 -29h55q67 0 89 55q6 20 6 35q-30 23 -30 49v211q0 29 30 48q0 48 -47 119q-75 92 -186 92h-9q-136 0 -209 -130q-23 -54 -23 -83q29 -15 29 -46v-211q-8 -50 -46 -50q-22 0 -42 32q-28 0 -59 52q-17 36 -17 71q0 80 62 121zM610 420v-233q0 -3 7 -7h12
q7 0 10 7v237q0 3 -7 7h-15q-7 -3 -7 -11zM105 424v-237q1 -7 10 -7h11q2 0 8 7v233q0 8 -8 11h-14q-3 0 -7 -7zM30 296q3 -63 41 -83h3v185h-1q-20 0 -40 -54q-3 -16 -3 -27v-21zM670 398v-185h1q20 0 39 54q3 18 3 28v22q0 57 -41 81h-2zM340 30h78q13 0 13 14v1
q0 11 -7 15h-90q-7 -3 -7 -16q2 -14 13 -14z" />
    <glyph glyph-name="uniE707" unicode="&#xe707;" horiz-adv-x="1000" 
d="M333 700h4l161 -89h4q2 0 41.5 22.5t118.5 62.5q4 2 7 2q316 -170 331 -181v-2q-153 -82 -157 -89v-4q111 -57 155 -84l-159 -89v-209q0 -13 -51 -33q-280 -142 -288 -142q-78 36 -162 78t-175 90q-2 4 -2 7v209q-7 5 -46 27t-111 60v2q12 9 155 86v4q-157 90 -159 93
q317 174 333 179zM524 -74q232 112 269 134v164l-133 -67q-130 72 -136 72v-303zM476 -74v303h-3l-130 -72h-2l-132 67h-2v-164q21 -14 269 -134zM337 208h2q14 1 118 63q-8 8 -242 132h-2q-108 -56 -117 -65q15 -12 241 -130zM547 275v-4q0 -5 115 -63q21 7 242 128v6
q-115 61 -118 61zM793 452q105 56 115 65q-11 10 -241 132h-2q-110 -60 -114 -65v-4zM93 523v-4q16 -12 114 -65q243 128 244 132q-107 63 -120 65q-117 -64 -176.5 -95.5t-61.5 -32.5z" />
    <glyph glyph-name="uniE708" unicode="&#xe708;" horiz-adv-x="741" 
d="M1 -91v5l-1 11q4 7 49 16l10 353v25q0 9 -6 16q4 7 4 19v3q-13 30 -13 46q15 12 15 20v3l-12 46v4q0 10 12 14l1 5q0 56 -6 95v4q0 8 12 19.5t27 34.5q3 5 3 8q-5 8 -5 12v1q0 15 10 22q9 -16 9 -25v-1q0 -3 -6 -6q9 -17 37 -49q6 -10 6 -19q-2 -18 -3 -32t-1 -25v-34
q11 -30 11 -32l-13 -46q0 -5 15 -16v-5q0 -12 -7 -36v-12q0 -14 -5 -36q5 -196 9 -254q-1 -5 -1 -9q1 -30 1.5 -55t0.5 -45q8 -5 8 -6q37 1 37 8v1q-17 63 -17 77q0 45 28 70q82 90 136 109q8 8 35 15q6 11 6 13q0 4 -7 22q1 2 1 4q-2 0 -4 8q0 11 13 17q11 0 17 -23
q0 -7 -11 -24v-5q10 -14 70 -42q23 -14 48.5 -35t54.5 -49q39 -37 39 -92q0 -3 -15 -65v-1q0 -7 119 -12q29 -3 29 -7v-124q0 -3 -3 -3h-260h-18.5t-24.5 1q-1 -1 -13 -1q-17 0 -17 1q-19 -1 -33 -1h-25h-312q-6 0 -7 25q1 5 1 9.5v8.5q0 14 -23 19q-4 4 -6 13q1 8 1 13.5
v10.5zM93 420q1 -4 8 -4h2q5 0 6 13q0 9 -8 25h-2q-6 -16 -6 -29v-5zM385 307q3 19 6 19q3 -3 5 -22q-3 -6 -5 -6h-1q-5 2 -5 9zM122 426v-1q2 -9 5 -9h1l1 10v11l-1 7h-1q-5 -15 -5 -18z" />
    <glyph glyph-name="uniE709" unicode="&#xe709;" horiz-adv-x="995" 
d="M0 303q5 111 66 135l13 2q4 0 17 -0.5t35 -1.5q264 0 655 232q11 11 19 11v-2q-58 -76 -75 -195q-15 -61 -15 -164v-48q0 -217 85 -344q3 0 7 -6l-5 -2q-68 45 -151.5 89t-172.5 78.5t-178.5 56t-170.5 21.5q-2 0 -50 -3q-55 0 -77 106q-1 11 -1.5 19.5t-0.5 15.5z
M740 308q0 225 77 346q28 31 52 31q29 0 55 -39t46 -117q25 -99 25 -213v-31q0 -220 -81 -342q-25 -23 -45 -25q-84 0 -123 259q-6 65 -6 114v17zM261 80v27l-2 14l4 2q89 -17 89 -25q-2 -22 -3 -39t-1 -31v-15q0 -80 36 -182v-9q0 -10 -50 -12q-55 0 -64 21q-17 25 -17 62
v23zM805 221q17 -17 49 -17h9q69 0 91 85v19q0 69 -85 91h-19q-28 0 -45 -17v-161z" />
    <glyph glyph-name="uniE710" unicode="&#xe710;" horiz-adv-x="899" 
d="M0 507q1 4 4 4h891q4 -1 4 -4v-324q-21 -13 -118 -32q-85 -17 -149 -25.5t-109 -8.5l-2 4v44q0 47 -54 65q-12 2 -17 2q-58 0 -72 -63v-48l-2 -4q-102 0 -312 45q-61 16 -64 21v324zM43 -196v322l2 4q204 -51 324 -51q9 -1 9 -5v-20q0 -31 22 -48.5t51 -17.5q49 0 70 57
v31q0 5 106 11q62 8 118 18t107 23q0 2 2 2l2 -4v-322q0 -4 -4 -4h-805q-4 0 -4 4zM220 554v55q0 21 9 37.5t23 28t32.5 18t37.5 6.5h260q18 0 35.5 -7t31 -19t22 -28.5t8.5 -35.5v-55q0 -4 -4 -4h-34q-3 0 -3 4v55q-10 49 -58 49h-263q-56 -8 -56 -52v-52q0 -4 -3 -4h-34
q-4 0 -4 4zM444 192h11q21 0 27 -28v-111q0 -21 -31 -27h-3q-31 4 -31 28v113q0 18 27 25z" />
    <glyph glyph-name="uniE711" unicode="&#xe711;" horiz-adv-x="807" 
d="M0 -52q0 122 99 207q38 29 67 39v-2q-11 -38 -28 -51q-49 -37 -66 -84l2 -7q-15 -40 -15 -73v-23q0 -42 29 -51q7 0 11 -4h32q15 1 15 16q-4 13 -11 16h-43q-8 0 -8 41q0 53 27 80q13 34 47 54h12q27 0 62 -62q11 0 20 -78v-2q-1 -33 -10 -33h-35q-16 0 -16 -16t16 -16
h31q37 13 37 36q1 7 1.5 12t0.5 9v10q0 37 -16 91q0 30 -50 75q-11 1 -28 25q15 56 57 56h2q0 -54 111 -83q14 -2 26.5 -3t22.5 -1h2q135 5 160 78q0 5 2 9q42 -4 42 -15q7 0 22 -43q-49 -18 -49 -61q0 -51 61 -58h4q54 12 54 55v3q0 42 -45 61q0 16 -9 35q1 0 1 2
q160 -82 160 -248q0 -92 -72 -123q-34 -21 -212 -21h-238q-213 0 -238 37q-47 30 -47 111zM322 683q50 18 82 18q121 0 187 -129q17 -51 17 -86q0 -109 -60 -210q-66 -86 -137 -86h-15q-100 0 -168 146q-29 85 -29 150q0 127 123 197zM228 444q0 -62 53 -151q54 -72 125 -72
q105 0 162 160q11 50 11 65l-27 -12v2q2 17 3 31.5t1 28.5q0 55 -26 72q-75 -31 -126 -31q-53 0 -125 31q-27 -10 -27 -78q0 -21 3 -56h-1q-24 12 -26 12v-2zM474 -50v-39q1 -4 4 -4h37q4 0 4 -4v-37q0 -4 4 -4h41q4 0 4 4v37q0 4 3 4h37q4 0 4 4v43l-9 2h-32q-3 0 -3 4v39
l-10 2h-33q-3 0 -6 -6v-35q0 -4 -4 -4h-35q-3 0 -6 -6zM644 126q27 -7 27 -28v-4q-5 -29 -29 -29h-4q-23 0 -28 33q0 24 34 28z" />
    <glyph glyph-name="uniE712" unicode="&#xe712;" horiz-adv-x="799" 
d="M65 50q42 39 111 65l86 37q3 -4 21 -84q7 -26 17 -55.5t23.5 -58.5t30 -55.5t35.5 -45.5q7 -7 11 -7q10 7 22 23t24 35t22 37t15 29q13 29 26 74t26 107h2q5 -1 21.5 -8t45.5 -20q41 -16 70.5 -31t48.5 -31q76 -77 76 -176v-10q0 -31 -53 -40q-97 -17 -179.5 -26
t-153.5 -9h-27q-142 0 -337 36q-49 10 -49 39v13q0 85 65 162zM214 378q0 30 12 30q6 0 6 86q0 50 42 99q47 44 122 44h11q95 0 142 -77q19 -31 19 -105q0 -47 5 -47q12 0 12 -32v-8q0 -32 -13.5 -58t-32.5 -50q-7 -22 -20 -44t-30 -39.5t-39 -28t-48 -10.5h-2
q-69 0 -119 74q-4 8 -9.5 20.5t-12.5 29.5q-45 53 -45 102v14zM111 381v52q0 50 7 50q0 9 30 19q9 0 9 14q8 37 21 59q39 74 136 110q42 13 72 13h12q140 0 219 -115q7 -13 13.5 -29.5t11.5 -36.5q0 -15 6 -15q21 0 36 -25q4 0 4 -46v-53q0 -52 -5 -52q-15 -20 -31 -20
q-8 0 -8 -17l-4 -43q21 -16 21 -36v-6q0 -16 -13 -27.5t-28 -11.5h-3q-18 0 -30 13.5t-12 30.5q0 28 35 43q6 11 6 113q1 17 1 39.5v51.5q0 71 -18 98q-27 56 -82.5 86t-116.5 30q-110 0 -182 -85q-23 -32 -29.5 -59.5t-6.5 -66.5v-142q-7 -12 -17 -12h-6q-32 0 -44 24
q-4 4 -4 52zM374 12q3 1 8 1h36q13 0 16 -30q7 -25 7 -31q-7 -14 -17 -32.5t-24 -41.5q-9 9 -34 59l-8 16q12 59 16 59zM362 92q10 1 15.5 1h7.5q53 0 53 -4q1 -1 1 -3q-7 -58 -15 -58q-8 -1 -13.5 -1h-9.5h-1q-30 0 -30 6q-10 39 -10 55z" />
    <glyph glyph-name="uniE713" unicode="&#xe713;" horiz-adv-x="774" 
d="M0 154q0 44 68 89q144 118 222.5 182t94.5 74q54 23 92 23q179 -25 189 -30q-30 -53 -48 -53q-29 -20 -29 -50v-9q0 -35 47 -53l12 -1q40 0 58 43q1 4 1.5 7t0.5 7v11q0 4 -4 19l28 44h6q13 -25 15 -44q-6 -249 -19 -249q-17 -56 -93 -110q-290 -241 -308 -249
q-18 -5 -26 -5h-7q-44 0 -88 68q-207 248 -207 258q-2 7 -3 14zM662 697h9q72 0 100 -82l3 -27q0 -47 -70 -135q-9 -16 -19.5 -31.5t-22.5 -29.5q-10 5 -24 18v3q101 145 101 160v22q0 31 -21 50t-51 19h-3q-35 0 -65 -35h-2q-24 15 -24 17q36 51 89 51zM441 31q51 0 62 65
v16q-8 59 -58 59h-5q-39 0 -56 -42q-6 -19 -6 -29q9 -69 63 -69zM214 194q0 -50 49 -66h21q25 0 39.5 20t14.5 43v15q0 52 -56 60h-9q-51 0 -59 -72zM280 31h28q2 6 34.5 64.5t95.5 170.5h-26q-6 -6 -132 -233v-2zM252 198q0 35 23 40h4q21 0 21 -35v-12q0 -35 -21 -35h-4
q-20 0 -23 42zM441 143h2q21 0 21 -35v-14q0 -24 -15 -33h-9q-16 0 -21 30v17q0 35 22 35z" />
    <glyph glyph-name="uniE714" unicode="&#xe714;" horiz-adv-x="793" 
d="M28 482q-28 4 -28 23v39q3 24 25 24h45v86q0 3 2 7q-2 4 -2 7v2q3 28 26 28h674q23 -6 23 -23v-9q0 -3 -4 -3h-91l2 -12v-718q0 -34 -28 -38h-539v-2q0 -19 35 -30h528q35 0 35 33v46.5t-1 92.5l3 2h56q4 -1 4 -4v-207q0 -19 -30 -26h-603q-46 0 -90 96v113h-47
q-23 5 -23 23v40q0 18 26 23h44v150h-44q-26 5 -26 23v41q6 22 23 22h47v151h-42zM219 240q0 -100 98 -151q32 -12 64 -12h7q56 0 91 23l-9 26q-37 -19 -81 -19q-97 0 -129 102q-6 29 -6 49q0 123 106 172q30 10 56 10q84 0 115 -75q9 -28 9 -55q0 -90 -54 -105
q-18 0 -19 28l21 135h-2q-15 8 -56 13q-28 0 -51.5 -11t-40.5 -29.5t-26.5 -42.5t-9.5 -51v-10q9 -63 51 -63h10q36 0 67 43h1v-3q0 -36 43 -40h7q67 0 91 100q3 18 3 40q0 118 -112 152q-33 6 -46 6q-126 0 -185 -137q-13 -42 -13 -70v-25zM344 238v13q0 56 52 82q4 2 9 2
h19l6 -4q-17 -98 -27 -98q-16 -24 -33 -24q-21 0 -26 29zM730 226q0 4 3 4h55q3 -1 3 -4v-100q0 -18 -26 -23h-32q-3 0 -3 4v119zM730 421q0 3 3 3h55q3 0 3 -3v-100q0 -18 -26 -23h-32q-3 0 -3 4v119zM730 621q0 3 3 3h55q3 0 3 -3v-100q0 -18 -26 -23h-32q-3 0 -3 4v119z
M72 296l-2 -10v-16l2 -10q-2 -4 -2 -9v-2q1 -4 4 -4h35q33 0 33 29v29q-3 28 -28 28h-42l-2 -8v-18q0 -5 2 -9zM70 40v-15l2 -11q-2 -4 -2 -5h44q23 0 28 26v32q0 28 -37 28h-31q-4 -1 -4 -4t2 -3l-2 -13v-15q0 -5 2 -9zM70 568v-17q0 -5 2 -9l-2 -11v-15q0 -5 2 -9l-2 -11
v-12h49q23 0 23 32v24q-3 28 -26 28h-46z" />
    <glyph glyph-name="uniE715" unicode="&#xe715;" horiz-adv-x="792" 
d="M0 543q3 24 25 24h45v86q0 3 2 7q-2 4 -2 7v2q3 28 26 28h673q23 -6 23 -23v-9q0 -3 -4 -3h-91l2 -12v-717q0 -34 -28 -38h-406q-4 0 -4 3v19q0 13 -12 13h-51q-4 0 -4 3v54q0 9 -8 14h-39q-9 -5 -9 -14v-54q0 -3 -3 -3h-51q-10 0 -10 -7h-4v85h-47q-23 6 -23 23v41
q0 17 26 22h44v151h-44q-26 5 -26 23v40q6 23 23 23h47v151h-42q-28 4 -28 22v39zM219 264v-24q0 -101 98 -151q30 -12 63 -12h7q56 0 91 23l-8 26q-37 -19 -81 -19q-98 0 -130 101q-2 14 -3.5 26.5t-1.5 22.5q0 123 105 172q30 10 56 10q85 0 116 -75q9 -28 9 -54
q0 -90 -55 -105q-18 0 -19 28l21 135h-2q-16 7 -56 12q-28 0 -51.5 -11t-40.5 -29t-26.5 -42t-9.5 -51v-11q9 -63 51 -63h11q36 0 66 44h2v-4q0 -35 42 -40h7q26 0 44 13.5t29 34.5t16.5 45.5t5.5 46.5q0 117 -112 153q-17 2 -28 3.5t-18 1.5q-126 0 -186 -137
q-12 -43 -12 -70zM194 -186v46q2 3 4 3h498q35 0 35 33q0 11 -0.5 46t-1.5 93l3 2h56q4 -1 4 -4v-207q0 -19 -30 -26h-573v2q5 7 5 12zM343 250q0 57 53 83q2 1 9 1h19l5 -3q-17 -98 -26 -98q-16 -25 -33 -25q-22 0 -27 30v12zM729 420q0 4 3 4h55q3 -1 3 -4v-100
q0 -19 -26 -22h-32q-3 0 -3 3v119zM729 620q0 3 3 3h55q3 0 3 -3v-100q0 -18 -26 -23h-32q-3 0 -3 4v119zM732 229h55q3 0 3 -3v-100q0 -18 -26 -23h-32q-3 0 -3 4v119q0 3 3 3zM70 250v-1q1 -4 4 -4h35q33 0 33 28v30q-4 28 -28 28h-42l-2 -9v-17q0 -5 2 -9l-2 -11v-15
l2 -11q-2 -4 -2 -9zM114 8q24 0 28 27v31q0 28 -37 28h-31q-4 0 -4 -3q0 -4 2 -4l-2 -12v-16q0 -6 2 -8l-2 -11v-16l2 -10l-2 -6h44zM70 567v-17q0 -5 2 -9l-2 -10v-16q0 -5 2 -9l-2 -10v-13h49q23 0 23 32v24q-3 28 -26 28h-46zM82 -130l4 2h49q3 -2 3 -4v-61h-1
q-41 29 -55 63z" />
    <glyph glyph-name="uniE716" unicode="&#xe716;" horiz-adv-x="1072" 
d="M45 698h851q47 0 47 -64v-68h87q42 -9 42 -42v-679q-6 -45 -51 -45h-844q-47 0 -47 64v68h-87q-43 9 -43 42v684q0 30 45 40zM219 479v-590h766v590h-766zM264 -60q70 103 113.5 166.5t62.5 87.5q8 4 13 4q13 -3 73 -85q12 -19 23 -19q13 0 47 51q59 77 90 119t38 45
q4 2 8 2q16 0 40 -41q167 -217 169 -225v-51q0 -9 0.5 -22.5t1.5 -31.5l-5 -2h-670zM87 19h43v483q0 64 44 64h679v43h-766v-590zM330 358q0 47 64 68h17q51 0 72 -62v-17q-12 -75 -74 -75h-5q-74 12 -74 75v11z" />
    <glyph glyph-name="uniE717" unicode="&#xe717;" horiz-adv-x="898" 
d="M0 216v59q0 150 127 290q142 133 302 133h36q170 0 313 -143q120 -130 120 -313q0 -139 -98 -273l4 -6q-15 0 -65 -62q-5 -2 -26.5 -14.5t-58.5 -37.5q-114 -49 -185 -49h-33q-198 0 -351 182q-85 133 -85 234zM211 64q90 -114 228 -114q123 0 215 110q36 51 36 121
q0 100 -108 224q-26 44 -26 75q0 34 33 65v3h-16q-127 0 -183 -146q-3 -18 -3 -29v-30q0 -18 33 -143v-26q0 -92 -111 -127h-45q-11 0 -53 17z" />
    <glyph glyph-name="uniE720" unicode="&#xe720;" horiz-adv-x="910" 
d="M0 251q0 155 107 288q25 26 42 42t27 23q65 45 133.5 69.5t146.5 24.5q176 0 315 -126q139 -140 139 -323q0 -111 -55 -215q-15 -41 -15 -63v-6q0 -1 -1 -1l1 -1v-4q0 -50 62 -103q8 -10 8 -16v-2q-9 -13 -50 -13h-17q-64 0 -140 35h-7q-12 0 -65 -25q-84 -35 -176 -35
q-170 0 -304 115q-53 52 -71 81q-80 119 -80 255zM256 249q0 -37 35 -48h314q36 0 46 36q0 6 1 11q0 17 -12.5 32.5t-29.5 15.5h-312q-29 0 -41 -35q0 -9 -1 -12zM256 103q0 -19 11.5 -33.5t31.5 -14.5h112q16 0 29.5 13.5t13.5 29.5v9q0 17 -13 30t-30 13h-113
q-29 0 -41 -35q0 -9 -1 -12zM454 394q0 -17 12.5 -32t29.5 -15h113q16 0 29.5 13.5t13.5 29.5v10q0 14 -13 28t-28 14h-115q-28 0 -40 -33q-2 -12 -2 -15z" />
    <glyph glyph-name="uniE721" unicode="&#xe721;" horiz-adv-x="877" 
d="M183 689q42 9 53 9h351q158 0 221 -81q69 -61 69 -200v-102q-19 -7 -201 -192q-99 -84 -185 -84q-19 0 -72 12q-12 -28 -24 -92h-6q-63 18 -96 74q-21 47 -21 81q-56 47 -56 102q0 100 152 189q80 39 147 39q51 0 86.5 -18.5t54.5 -56.5q3 -6 3 -12q0 -39 -135 -81
q-37 -6 -63 -6q-87 0 -87 57v12l3 15q-28 0 -60 -60q-3 -21 -6 -27q0 -34 33 -66q-36 -46 -36 -93q0 -63 63 -107h3q0 121 219 200q134 63 134 201v15q0 152 -161 194q-19 3 -39 3q-176 0 -326 -218q-78 -133 -78 -255q0 -191 182 -257q47 -15 90 -15h21q192 0 371 284
q47 60 84 93h6v-72q0 -215 -18 -215q-34 -92 -132 -141q-52 -18 -80 -18h-420q-107 0 -194 123q-33 57 -33 122v405q0 169 183 239z" />
    <glyph glyph-name="uniE722" unicode="&#xe722;" horiz-adv-x="898" 
d="M0 258q0 286 36 344q62 81 147 81q22 12 272 15q313 0 365 -51q78 -48 78 -263v-183q0 -221 -27 -287q-28 -54 -63 -69q-46 -45 -362 -45q-345 0 -380 63q-51 43 -51 111q-12 29 -15 284zM87 -44q11 0 27 -3q70 0 173 57q53 -24 126 -24h9q89 -101 132 -114
q39 -20 66 -30q194 260 194 401v33q0 222 -215 365q-3 0 -30 15q-60 -19 -156 -120h-27q-140 0 -227 -143q-33 -61 -33 -132q0 -70 36 -135q0 -63 -48 -143q-4 0 -27 -27zM431 527q102 105 141 105q224 -131 224 -365q0 -141 -122 -314q-52 -83 -63 -87q-96 33 -177 138
q0 16 84 125h3l57 -36h3q66 69 66 168q0 92 -60 162q0 -3 -57 -39h-3q-81 106 -96 143zM275 291h6q33 -4 33 -33v-6q-4 -33 -33 -33h-6q-24 0 -33 36q8 36 33 36zM359 258q11 33 33 33h9q30 -6 30 -30v-12q0 -24 -33 -30q-39 5 -39 39zM479 249v12q6 30 30 30h9q29 0 33 -42
q-13 -30 -33 -30h-6q-33 6 -33 30z" />
    <glyph glyph-name="uniE723" unicode="&#xe723;" horiz-adv-x="997" 
d="M0 448v28q0 70 41 118.5t126 71.5q18 5 42 5q58 0 116 -37h9q52 37 120 37q60 0 116 -37h10q52 37 120 37q145 0 200 -162q4 -23 4 -47q0 -55 -51 -162q144 -226 144 -242q0 -6 -14 -14q-181 42 -222 42q-69 -116 -186 -116q-67 0 -121 42q-57 -39 -125 -42
q-165 0 -232 223q-97 201 -97 255zM97 471v-18q0 -32 149 -348q38 -33 69 -33h33q63 0 102 116h4q32 -116 107 -116h23q75 0 121 130h9l98 -18q-65 101 -65 116q60 137 60 167q0 87 -116 107q-79 0 -111 -117h-5l-46 84q-39 33 -84 33q-83 0 -111 -121h-9q-31 121 -121 121
q-83 0 -107 -103z" />
    <glyph glyph-name="uniE724" unicode="&#xe724;" horiz-adv-x="891" 
d="M0 -197l75 237q-63 102 -63 222q0 236 225 384q105 54 222 54q230 0 372 -216q60 -100 60 -219v-12q0 -231 -222 -375q-111 -57 -219 -57q-93 0 -213 54l-237 -75v3zM87 262q0 -105 69 -216v-3l-42 -129q129 42 138 42h3q96 -60 198 -60q194 0 315 183q48 87 48 174v18
q0 188 -186 309q-88 45 -180 45q-226 0 -336 -228q-19 -40 -27 -135zM231 367q23 108 69 108h36q17 0 51 -120q-6 -16 -39 -51v-3q26 -73 120 -135q39 -18 42 -18q5 0 57 57h3q92 -36 111 -60q0 -73 -66 -96q-33 -9 -51 -9q-166 44 -243 147q-87 108 -90 180z" />
    <glyph glyph-name="uniE725" unicode="&#xe725;" horiz-adv-x="962" 
d="M142 692q30 6 48 6h582q109 0 171 -113q19 -35 19 -77v-364q0 -137 -161 -190q-52 -3 -80 -3h-103q-148 -147 -158 -148l-19 -3h-6q-29 0 -42 19q191 200 209 200h148q100 0 135 80q10 16 10 42v367q0 93 -113 122h-592q-44 0 -84 -35q-38 -41 -38 -87v-373
q0 -66 86 -110q33 -6 58 -6h120q61 -10 61 -58v-10h-161q-166 0 -219 126q-13 39 -13 67v364q0 126 142 184zM460 135q52 277 74 277q42 45 94 45h13q86 0 122 -100q3 -18 3 -36q0 -88 -103 -125l-29 -3q-40 0 -87 32q-10 -97 -71 -97h-9q-7 0 -7 7zM196 328v190l4 6
q53 0 64 -71v-12q28 16 58 16h13q88 0 122 -103q3 -16 3 -33q0 -88 -103 -125l-29 -3q-92 0 -128 103q-4 15 -4 32zM264 331v-10q0 -53 68 -61h3q45 0 58 61v13q0 43 -65 58q-51 0 -64 -61zM570 321q0 -51 64 -61q64 9 64 61v10q0 49 -64 61q-64 -13 -64 -64v-7z" />
    <glyph glyph-name="uniE726" unicode="&#xe726;" horiz-adv-x="418" 
d="M0 214q167 186 277 186q64 -4 64 -59q-48 -171 -75 -274t-34 -140q27 23 58.5 51t68.5 63h5q6 0 54 -55q-184 -186 -259 -186q-64 0 -73 77q0 79 96 391q-11 -8 -40.5 -32.5t-77.5 -67.5h-5q-29 16 -59 46zM277 700q60 0 78 -82v-4q-17 -119 -100 -119h-14q-65 0 -77 82
v18q0 88 113 105z" />
    <glyph glyph-name="uniE727" unicode="&#xe727;" horiz-adv-x="857" 
d="M138 211q59 27 95 27q12 -56 120 -205l8 103q-31 16 -31 42q0 4 4 4q21 -10 44 -10h14q13 0 44 10v-4q0 -26 -31 -42l8 -101q121 155 130 203h2q73 0 157 -75q33 -37 33 -45h-2q-8 1 -15 1.5t-12 0.5q-110 0 -161 -116q-8 -32 -8 -57q0 -55 37 -102l-4 -2h-314
q-178 0 -211 35q-45 34 -45 106q0 143 138 227zM194 487v9q0 112 107 177q44 23 89 23q39 0 74 -16t61.5 -43t42.5 -62.5t16 -74.5v-10q0 -180 -124 -265q-35 -20 -70 -20q-119 0 -181 173q-15 60 -15 109zM277 296q53 -60 109 -60h6q100 0 155 154q10 43 10 60h-2
q-5 0 -22 -10l-2 4q2 19 3 32.5t1 21.5q-4 70 -27 70q-72 -29 -118 -29t-122 29q-20 0 -26 -72l4 -56h-2q-16 10 -23 10q0 -68 56 -154zM557 -51q0 102 110 146q16 4 29 4h22q73 0 124 -84q15 -38 15 -66q0 -95 -103 -141q-23 -7 -48 -8q-93 0 -140 99q-8 26 -9 50zM688 -95
q4 1 82 81v6q-16 21 -27 21q-4 -1 -82 -81q2 -3 27 -27zM644 -113h2l37 10q0 2 -29 29z" />
    <glyph glyph-name="uniE728" unicode="&#xe728;" horiz-adv-x="695" 
d="M147 612q94 59 193 59h15q171 0 288 -149q52 -83 52 -172v-1q0 -102 -71.5 -231.5t-223.5 -281.5q-25 -25 -51 -25h-3q-35 0 -80 57q-266 289 -266 481v6q0 151 147 257zM116 349q0 -126 130 -193q51 -22 102 -22q133 0 208 121q23 49 23 94q0 124 -130 193
q-51 22 -101 22q-136 0 -209 -121q-23 -49 -23 -94zM342 456h11q21 0 41 -8t35 -21.5t24.5 -32t9.5 -40.5v-10q0 -21 -9.5 -39.5t-25 -33t-35 -22.5t-40.5 -8h-11q-21 0 -41 8t-35.5 22t-24.5 32.5t-9 40.5v10q0 21 9.5 39.5t25 32.5t35.5 22t40 8z" />
    <glyph glyph-name="uniE729" unicode="&#xe729;" horiz-adv-x="958" 
d="M397 221l34 44q-11 0 -11 6v11q0 4 8 9l15 -3q0 14 -9 14v6q12 0 29 23q8 0 9 12q8 0 8 -9h3l21 3l-3 6q0 6 11 6l-3 5v3h12v6l-15 -3l-2 6v12l8 11v3h-8q0 -9 -12 -20l3 -15q-6 -17 -12 -17h-3q0 17 -8 17q0 -5 -6 -5q-4 0 -9 14q20 23 38 58q14 9 23 9q37 -17 38 -24
v-2q0 -6 -18 -6v-6q2 -6 6 -6h6q0 19 58 32l-3 6v3q10 0 23 -12l-3 15v11q0 5 12 12q0 -9 11 -9q11 10 26 17q0 14 38 26l12 12h2q12 -12 24 -12l5 -8q0 -5 -17 -20v-3l6 3h17l15 -9q0 9 5 9q15 0 15 -24l6 3q7 0 11 -3l15 12q12 0 29 -14h20v-9h12l14 -3l3 6q20 0 52 -32
l-12 -9l-8 6h-3l-12 -20q-37 -16 -37 -23q0 -12 -18 -35h-6q0 31 21 49v3l-12 3l-9 -15l-20 3q-15 0 -23 -14v-6q9 -10 9 -14q0 -24 -38 -50q6 -9 6 -14l-6 -3h-3l-6 17h-14v-5h6q0 -4 -3 -9l3 -18q0 -14 -26 -28v-3l-15 3v-6l9 -12v-9q0 -5 -6 -5h-3l-14 8h-9q0 13 -14 18
q0 11 -6 11t-26 -23v-3l3 -14q-21 0 -29 35q-12 17 -44 17q0 3 -17 11q0 -2 -3 -2q6 -13 12 -15l5 3l18 -6q-18 -29 -38 -29v-3q11 0 15 -3q0 -6 -32 -40q3 -25 3 -32q-14 -8 -15 -14q3 -6 3 -9q-5 0 -20 -26l-20 -6h-6q-5 0 -20 52q1 10 1.5 18t0.5 14q-6 0 -11 26l-12 6
q-19 -3 -32 -3h-5q-23 17 -23 46zM14 401l-11 14q0 4 17 18q7 0 73 -15q0 4 8 9l6 -3q6 3 9 3q14 -9 20 -9l-3 6q6 3 9 3v6q-9 0 -18 11q0 -6 -5 -6h-6v15q0 3 3 3l-3 6q2 5 6 5q5 0 37 -17q0 5 9 9l3 -6q0 -3 -3 -3q7 -21 17 -32v-3h-3l-14 3q-10 -3 -23 -3q0 -3 -3 -8h3
q6 2 11 2q2 -5 6 -5q0 4 3 8q2 0 10 -1.5t22 -3.5q3 5 3 8q-6 11 -6 18q0 4 3 8q-3 5 -3 12v3q0 4 9 8q5 0 5 -5v-3l-8 -12q17 -31 17 -35l12 12h3l5 -3l-2 -6q2 -6 2 -8l-5 -3l-6 3l-26 -41l-3 -11q38 -15 38 -26v-6h8l-3 14q5 0 9 9l-6 9v2q0 3 3 3l-3 6v6q2 6 6 6h6
q14 -8 14 -12v-14h9q0 11 6 11q3 -20 23 -37q0 -9 -35 -15v-3h3l6 3l3 -6v-3q0 -3 -9 -8l-6 3q-16 -6 -20 -18q3 -4 3 -11q-4 0 -12 -12v-3q0 -8 6 -17l-6 -3q-8 14 -11 14h-9q-8 -5 -12 -5l-5 3q-10 -3 -18 -18v-3q6 -11 18 -11q0 3 8 8q6 0 6 -5v-9q10 0 12 -20h11
q14 11 26 11l44 -23q3 0 3 -3v-6l-3 -5l6 -3l8 6q32 -14 32 -18v-3q-11 -11 -14 -37q-24 -9 -24 -23q-46 -46 -46 -55l-6 -27v-5q9 0 9 -6l-6 -3q-9 5 -20 29q12 87 12 101q-15 4 -29 35l3 6q-3 5 -3 8q4 0 11 12v3h-14q-4 0 -15 17q-55 10 -55 35l-14 12v-3l6 -9v-3h-3
q-19 14 -29 61v3q0 7 3 11q-23 31 -23 38q-13 16 -38 23q-10 -1 -20 -17l-29 -12l-3 6q18 8 20 14v3q-23 0 -23 21q8 5 14 5v6h-17v6q0 6 14 6zM790 123q5 0 12 6h5q11 -15 15 -15q3 5 3 15h6q0 -9 29 -44q0 -11 -18 -34h-17q-20 20 -32 20l-29 -9h-3q-6 0 -11 38q5 0 40 23
zM475 271q0 -15 23 -21q0 6 8 6q27 -6 32 -6l3 6v9h-17q-4 0 -9 8q0 5 9 9h9l20 -3l3 6q-9 0 -9 17l-12 -8q0 5 -5 5q-4 -14 -29 -28q0 16 -18 23h-3v-3q0 -1 15 -15q-5 -11 -9 -11h-3v3q3 5 3 8l-8 6h-6v-6h-6v6l3 6h-3q-15 0 -23 -23q29 6 32 6zM208 438v12q0 5 9 9
q3 -6 3 -9h3v6h6q11 -14 20 -15q6 -7 6 -11h3l5 3q0 -3 3 -3l-3 -6q12 -20 24 -20v-6q0 -6 -6 -6h-3q0 4 -20 15l-18 23l-6 -3h-14q-4 0 -12 11zM700 187q3 -18 15 -18v6q-3 6 -3 9h6q11 -44 46 -44h29v-5q-2 0 -17 -3q-81 14 -81 55h5zM585 441q6 52 46 52v-3
q-35 -23 -35 -52v-5h-3q-3 0 -8 8zM787 155q6 3 9 3q15 0 46 -9l12 6l3 -6q0 -6 -12 -6v-6h6v-5h-6l-9 5l-5 -2q-4 0 -24 17h-2l-15 -3zM194 496q15 -5 20 -17l15 3q4 0 8 -9q0 -4 -8 -9h-9q-9 0 -20 9q0 -6 -6 -6l-3 6q6 3 9 3v9q-9 0 -9 5zM417 328q0 4 11 12l-3 6
q0 4 12 11l12 -37l-6 -3h-6q-20 8 -20 11zM130 499h3l6 -3l-3 -6v-2q8 0 17 -9h3l-3 6v5h3q4 0 12 -14q-13 -9 -26 -9q-7 18 -20 18h-3v3q0 3 11 11zM793 247v6q35 18 35 52h6q0 -8 8 -8q0 -9 -11 -9v-9q0 -15 -29 -29v-3h-9zM579 126h3v-3q-5 -32 -12 -32h-3q-6 0 -6 6
q0 19 18 29zM243 392q8 0 17 9q11 -3 18 -18q-9 -7 -9 -11h-3l-14 14q-6 -3 -9 -3v9zM761 178q3 -6 3 -9q-5 -20 -11 -20h-6q-6 0 -6 6v6q0 3 20 17zM217 505q23 -6 23 -12v-3l-3 -5l-11 5q-6 -2 -12 -2h-3q0 7 6 17zM382 398h3q3 0 3 -3l6 3h8q6 -1 6 -6q0 -3 -11 -11h-6
q-6 0 -9 17zM767 207h3q2 0 17 -20v-3q0 -4 -8 -9q-12 21 -12 32zM912 51q-3 5 -3 8h6q5 -2 5 -6v-5l-20 -26h-3q-6 0 -6 5q21 15 21 24zM177 444v9q0 4 8 9l3 -6v-12q0 -6 -6 -6q-5 0 -5 6zM179 490h3q6 0 6 -5v-6q0 -6 -6 -6q-3 0 -11 12zM229 389q5 -2 5 -6l-5 -2
q0 2 -3 2q0 -5 -6 -5l-3 5v6h12zM839 42h3v-9h-3q-5 0 -5 6z" />
    <glyph glyph-name="uniE730" unicode="&#xe730;" horiz-adv-x="899" 
d="M283 12q0 20 87 90q112 109 136 109q12 2 18 2h136q19 0 19 -16v-5q0 -3 -122 -113h117q75 9 75 67v202q-9 67 -75 67h-63v2q42 33 42 67q0 29 -40 63v3h59q153 0 218 -143q9 -30 9 -65v-194q0 -127 -140 -189q-43 -15 -87 -15h-115q122 -110 122 -115v-4q-7 -15 -21 -15
h-131q-46 0 -103 63q-138 118 -138 130q0 5 -3 9zM0 354q0 118 143 183q39 13 72 13h127q-122 110 -122 113v4q0 17 19 17h138q42 0 103 -67q133 -115 133 -124l3 -13q0 -17 -87 -88q-113 -109 -133 -109l-14 -2h-143q-19 0 -19 16q0 13 82 80l40 38h-115q-77 -9 -77 -67
v-196q0 -53 56 -71q8 -1 14.5 -1.5t11.5 -0.5h56v-2q-40 -34 -40 -57v-17q0 -23 40 -56v-3h-70q-123 0 -197 116q-21 41 -21 80v214z" />
    <glyph glyph-name="uniE731" unicode="&#xe731;" horiz-adv-x="896" 
d="M0 248q0 93 35.5 174.5t96.5 142t142.5 96t173.5 35.5q93 0 174.5 -35.5t142 -96.5t96 -142.5t35.5 -173.5q0 -195 -155 -339q-133 -109 -293 -109q-93 0 -174.5 35.5t-142 96.5t-96 142.5t-35.5 173.5zM306 328l12 -2q38 0 53 63q26 60 81 60h10q25 0 40 -13t30 -36
q3 -4 3 -15v-9q0 -34 -63 -82q-66 -58 -69 -92q-4 -1 -5 -41v-1q0 -23 12.5 -36t34.5 -13q29 0 41 30q9 52 28 68q55 47 81 75t26 35q17 26 17 62q0 38 -16 65.5t-42.5 46t-59 27.5t-65.5 9t-66.5 -11t-60.5 -31.5t-44 -50t-17 -65.5q0 -28 39 -43zM391 21q0 -45 54 -54h4
q53 9 53 51v9q0 24 -16 38t-39 14q-24 0 -40 -17.5t-16 -40.5z" />
    <glyph glyph-name="uniE732" unicode="&#xe732;" horiz-adv-x="866" 
d="M0 636q10 61 58 61h589q42 0 58 -52v-247q0 -2 -12.5 -27t-41.5 -72q-7 -11 -7 -15h-3v349h-577v-769h577v95q61 109 62 109h2v-210q-9 -58 -58 -58h-589q-23 0 -40.5 17.5t-17.5 40.5v778zM758 398h2q5 0 64 -35v-3q-109 -190 -166.5 -288t-62.5 -106q-60 -36 -64 -36
v76q112 192 168.5 289.5t58.5 102.5zM119 209q0 3 3 3h461q3 -1 3 -3v-40q0 -3 -3 -3h-461q-3 0 -3 3v40zM119 419q0 3 3 3h461q3 0 3 -3v-39q0 -3 -3 -3h-461q-3 0 -3 3v39zM119 490v39q0 3 3 3h351q3 0 3 -3v-39q0 -4 -3 -4h-351q-3 0 -3 4zM119 108q0 3 3 3h351q3 0 3 -3
v-40q0 -3 -3 -3h-351q-3 0 -3 3v40zM119 279v40q0 3 3 3h351q3 -1 3 -3v-40q0 -3 -3 -3h-351q-3 0 -3 3zM162 4q37 0 44 -45q0 -29 -32 -43l-9 -2h-3q-46 7 -46 45q8 45 46 45zM258 -46v9q10 40 39 40h10q39 -9 39 -40v-6q0 -30 -33 -43h-12q-30 0 -42 31zM778 424
q11 19 16.5 29t6.5 12h1q9 0 64 -36q-21 -40 -24 -42h-3q-54 32 -61 37z" />
    <glyph glyph-name="uniE733" unicode="&#xe733;" horiz-adv-x="902" 
d="M640 702h46q12 0 216 -216v-28q0 -62 -244 -261q-16 -9 -27 -9q-33 0 -81 63q3 18 18 18h9q38 -36 72 -36l217 225q-169 208 -217 208q-216 -217 -216 -235q0 -7 36 -54v-9q0 -18 -18 -18q-63 44 -63 90q0 48 252 262zM244 305q17 9 27 9q33 0 81 -63q0 -18 -18 -18h-9
l-45 36h-18q-13 0 -226 -225q169 -208 217 -208q216 218 216 235q0 8 -36 54v9q3 18 18 18q63 -43 63 -90t-252 -262h-46q-12 0 -216 216v28q0 62 244 261zM622 449q14 0 27 -27q-4 -16 -369 -369q-13 0 -27 27q5 17 369 369z" />
    <glyph glyph-name="uniE734" unicode="&#xe734;" horiz-adv-x="899" 
d="M0 43q0 61 243 260q17 9 27 9q33 0 81 -62q0 -18 -18 -18h-9q-38 35 -72 35l-216 -224q170 -207 216 -207q215 217 215 234q0 7 -35 54v9q2 18 18 18q62 -44 62 -90t-251 -261h-45q-13 0 -216 216v27zM638 699h45q14 0 216 -216v-27q0 -60 -243 -260q-16 -9 -27 -9
q-33 0 -81 63q3 17 18 17h9q38 -35 72 -35l216 224q-169 207 -216 207q-215 -217 -215 -234q0 -7 35 -54v-9q0 -18 -17 -18q-63 44 -63 90t251 261zM135 582h9q14 -1 126 -126v-9q0 -18 -18 -18h-9q-13 0 -126 126v9q3 18 18 18zM656 70q14 -1 126 -126q0 -14 -27 -27
q-13 0 -126 126q0 14 27 27zM557 -2q18 0 72 -117l-27 -18q-10 0 -72 117zM270 618l27 18q11 0 72 -117l-27 -18q-18 0 -72 117zM54 411l18 27q117 -60 117 -72l-18 -27q-117 56 -117 72zM728 160q117 -55 117 -72l-18 -27q-117 60 -117 72z" />
    <glyph glyph-name="uniE735" unicode="&#xe735;" horiz-adv-x="960" 
d="M87 691q5 1 9.5 1.5t9.5 0.5h748q73 0 104 -79q1 -7 1.5 -12t0.5 -9v-683q0 -69 -86 -98q-5 -1 -10 -1.5t-10 -0.5h-748q-73 0 -104 79q-1 7 -1.5 12t-0.5 9v683q0 70 87 98zM222 155q24 -62 54 -62q29 0 56 72q71 144 81 156q20 15 32 15q31 0 35 -36v-164q0 -43 39 -43
q33 8 33 31v174q6 38 38 38q35 -9 35 -31v-164q0 -48 38 -48q31 0 35 45v167q0 24 37 31q28 0 36 -38v-174q0 -23 35 -31q37 0 37 43v152q0 79 -66 110q-24 10 -44 10q-37 0 -72 -29q-35 29 -71 29q-38 0 -71 -27h-4q-31 27 -73 27q-85 0 -135 -141q-13 -25 -20 -40t-9 -22
h-2q-4 4 -97 193q-8 4 -14 6.5t-11 3.5q-36 -7 -36 -37q0 -10 104 -216z" />
    <glyph glyph-name="uniE736" unicode="&#xe736;" horiz-adv-x="3049" 
d="M25 254v6q0 21 9 40q5 37 21 75.5t46 80.5q78 108 200 143q23 4 61 9t92 11q63 14 84 39q6 17 9 17h3q6 0 12 -42v-9q0 -78 -129 -164q-103 -64 -228 -86h-39q-3 0 -3 -6q37 -57 40 -60h2q36 24 57 24q38 0 58 -30t20 -64q-1 -85 -78 -174q-54 -54 -93 -54
q-57 0 -114 131q-21 68 -21 88q-9 0 -9 25zM208 -103v2q0 53 36 97q45 54 114 105q90 57 168 57q22 0 66 -14h3q-6 68 -12 71h-3q-27 -9 -48 -9q-60 0 -105 68q-12 29 -12 54q0 106 114 157q34 15 51 14q75 0 117 -93q18 -52 18 -112q0 -153 -123 -267q-75 -69 -243 -108
q-79 -29 -95 -51q-19 -13 -19 -38l-6 -2q-6 0 -9 22q-12 19 -12 47zM2515 371q6 36 9 40h71l10 2q9 -1 9 -5q0 -15 -6 -42v-3h3q48 56 114 56h3q32 0 53.5 -11.5t30.5 -36.5l3 -8h6q45 56 114 56h3q34 0 57.5 -17.5t29.5 -53.5q2 -10 3 -14q0 -31 -48 -259q-6 -3 -9 -3h-84
q-9 0 -9 6q39 203 39 219q-3 40 -30 40h-6q-69 0 -99 -207q-12 -55 -15 -55q0 -3 -9 -3h-84q-3 0 -6 6q6 30 15.5 81.5t23.5 126.5v28q-6 23 -24 23h-9q-24 -1 -40.5 -20.5t-27 -46t-16.5 -54t-9 -44.5q-12 -100 -24 -100h-93l-6 3q5 19 19 92t38 204zM1471 198q6 76 57 148
q20 18 37 30.5t35 21t38 13t46 6.5h6q15 0 45 -9q3 0 24 119q5 26 12 26h78l18 3q3 -6 3 -9q-4 -20 -11.5 -61t-21.5 -104q-55 -258 -54 -307q-3 -3 -6 -3h-84l-6 3q2 14 3 26.5t3 22.5l-3 2q-45 -56 -108 -56h-6q-38 0 -62 20t-37 59q-8 23 -6 49zM2311 419h12
q75 0 119 -53q25 -37 25 -80v-14q0 -88 -78 -157q-59 -43 -129 -43h-3q-81 0 -129 63q-18 35 -18 80q0 41 16 78t43.5 65t64 44.5t77.5 16.5zM1102 206q0 77 75 153q72 60 171 60h6q95 -1 114 -20v-2q-48 -174 -48 -271v-51l-9 -3h-81q-9 0 -9 3q3 47 6 66l-3 3q-2 -3 -4 -7
q-2 -3 -4.5 -7.5t-6.5 -11.5q-45 -46 -99 -46h-6q-63 0 -96 74q-6 26 -6 34v26zM1912 377q66 42 129 42h18q66 -1 66 -11v-2q-21 -74 -27 -74q-31 11 -39 11q-96 0 -123 -103v-25q9 -63 66 -63h3q23 0 63 14h3q3 0 3 -2v-72q0 -11 -78 -20h-18q-123 0 -150 108q-3 24 -3 32
q0 95 87 165zM880 160q42 197 42 253l3 6h87l3 -6q-3 -47 -6 -62l3 -3h3q39 74 123 74q3 0 6 -5v-4q-15 -67 -21 -93h-27q-65 0 -93 -94q-4 -13 -12 -50.5t-21 -100.5l-6 -3h-90q-9 0 -9 3v3q3 13 15 82zM2218 215q0 -66 57 -66q56 0 81 105q3 12 3 20v6q0 63 -54 63
q-63 0 -84 -105q-3 -15 -3 -23zM1243 152h15q63 0 93 185q0 2 -3 6h-27q-24 0 -43.5 -13.5t-34 -33.5t-23 -44.5t-10.5 -45.5v-6q0 -36 33 -48zM1612 149h15q33 0 63 55q9 17 30 128q-20 7 -39 7h-3q-60 0 -93 -87q-6 -25 -6 -46q0 -40 33 -57zM301 442q6 -1 10.5 -1.5
t7.5 -0.5q33 8 33 27v15q0 14 -13.5 27.5t-37.5 31.5q-5 4 -12 4h-9q-15 0 -30 -26v-17q0 -28 51 -60zM2221 -170q17 -5 21 -5q27 0 36 37h-3q-16 -14 -30 -14q-27 10 -27 31q1 20 11 35t31 22q9 3 12 3h3q30 -3 30 -9q-18 -107 -33 -107q-12 -9 -18 -15l-12 -3
q-15 0 -27 18v2q0 3 6 5zM1456 -64q6 3 9 3q6 -6 6 -15q24 15 33 15q27 -9 27 -29v-2q0 -47 -48 -60h-6q-2 0 -5.5 0.5t-9.5 1.5h-3q-3 0 -9 -34l-6 -2h-3q-3 0 -6 9q12 42 21 113zM1534 -177q5 17 10.5 45t13.5 68q3 3 6 3q6 -15 9 -15q12 12 27 15q24 0 30 -29v-6
q0 -43 -51 -56h-3l-12 1.5t-6 0.5q-3 -2 -12 -36h-9q-3 0 -3 9zM2809 -61h9q36 -6 36 -35v-2q0 -38 -45 -54h-6q-36 9 -36 29v11q0 36 42 51zM2425 -115q0 39 48 54h6q30 -9 30 -29q3 0 3 -8q0 -38 -45 -54h-6q-30 0 -36 37zM1702 -121v3q0 42 36 54q9 3 12 3q30 0 36 -35
v-2q0 -38 -45 -54h-3q-36 6 -36 31zM1858 -61h12q15 0 15 -9q-12 -48 -12 -71v-2q0 -3 -6 -9h-3q-3 0 -6 6v14h-3q-18 -20 -30 -20q-21 0 -30 29q0 26 19.5 43t43.5 19zM1366 -78q10 11 39 17q27 0 27 -9q-12 -42 -12 -60v-13q0 -3 -6 -9h-3q-3 0 -6 6v14h-3
q-15 -20 -30 -20q-21 0 -30 29q15 45 24 45zM2002 -16h9l1 -1q1 -1 2 -1v-9q-3 -30 -12 -43q4 -2 6 -2q16 11 27 11q24 -6 24 -20v-3q-9 -68 -15 -68h-6q-3 0 -6 9q12 42 12 56q-3 11 -12 11h-3q-24 0 -33 -45q0 -31 -15 -31q-3 0 -6 6v3q21 103 27 127zM2799 -141h7
q33 10 33 43q-3 26 -21 26h-3q-24 0 -33 -43q0 -15 17 -26zM1732 -141h12q27 18 27 45q-3 24 -21 24q-27 0 -36 -43q0 -17 18 -26zM2442 -121q5 -20 19 -20h3q29 11 29 34q4 4 4 11q-6 24 -21 24q-34 -6 -34 -40v-9zM1558 -130q3 -11 15 -11h6q21 0 36 40v9q-6 20 -21 20
q-33 -15 -33 -51l-1 -2q0 -1 -2 -5zM2866 -143l15 79l6 3q6 0 6 -15q6 0 24 15h9q18 0 24 -23q-9 -68 -18 -68h-6q-3 0 -6 9q6 4 15 56q0 9 -15 15q-36 -15 -36 -49q-3 -31 -9 -31h-6l-3 6v3zM1474 -141h6q36 10 36 45v4q0 14 -18 20q-33 -12 -33 -46q-3 0 -3 -14
q6 -9 12 -9zM2116 -143q6 10 21 79l6 3q3 -6 3 -15q6 0 21 12q3 0 12 3q21 0 24 -23q-9 -66 -15 -66q-4 -2 -6 -2h-3l-3 6q3 10 12 54v11q-3 4 -15 9q-33 -12 -33 -49q-6 -31 -12 -31h-3q-3 0 -9 9zM2569 -127q9 63 15 63q3 0 6 3q5 -3 5 -6q-11 -47 -11 -60v-3
q6 -11 15 -11q33 13 33 51q6 26 9 26h9q3 0 3 -3q-12 -51 -15 -79q-6 -6 -9 -6l-6 11h-3q-16 -11 -27 -11q-21 0 -24 25zM1813 -127q6 -14 18 -14q33 13 33 54q3 0 3 9q0 6 -9 6q-20 0 -32.5 -18.5t-12.5 -36.5zM2236 -121q3 -17 18 -17q33 10 33 60q-6 6 -12 6
q-30 0 -39 -38v-11zM1360 -130q0 -2 12 -11h3q18 0 33 31q0 6 6 29v3q0 1 -6 6q-36 0 -48 -43v-15zM2668 -70q0 3 18 9q0 23 15 23q3 -6 3 -9l-3 -9q0 -8 21 -8v-6q-3 -6 -12 -6h-6q-9 0 -18 -54q0 -5 18 -11v-2q-3 -9 -12 -9q-21 1 -21 20l9 54q-12 6 -12 8zM2350 -141
q0 3 6 6l15 -6h3q12 0 17 11v9q-29 23 -29 29v5q0 20 33 26q18 0 18 -6v-3q0 -2 -6 -6q-4 0 -12 4q-18 -5 -18 -15v-3l24 -20q9 -8 6 -17q-9 -25 -33 -25q-15 0 -24 9v2zM1897 -118q0 40 48 57h15q6 0 9 -6v-3q0 -2 -3 -6h-21q-33 -5 -33 -45q0 -14 21 -20h3l18 6q3 0 6 -6
q-9 -11 -27 -11q-36 6 -36 34zM2965 -135q15 -6 18 -6h3q9 0 15 11v9q0 3 -24 23q-3 7 -3 14q12 23 33 23q21 -3 21 -6q-3 -9 -12 -9q-8 4 -15 4q-15 -6 -15 -15v-3q33 -23 33 -31v-2q0 -23 -36 -29q-15 0 -21 9v2q0 3 3 6zM2551 -16h6q2 0 6 -2v-6q-21 -119 -27 -126l-9 -2
q-3 0 -3 6zM1642 -143q12 51 15 79q3 3 6 3q6 -15 9 -15q15 15 24 15q3 0 6 -3q0 -13 -21 -17q-17 -15 -18 -31q-3 -40 -15 -40h-3q-3 0 -3 9zM2074 -143q6 17 18 79q6 3 9 3t6 -6l-15 -79l-9 -6h-3q-3 0 -6 9zM2722 -146v3q6 14 18 79q6 3 12 3q0 -3 3 -6q-8 -36 -15 -79
l-6 -6q-9 0 -12 6zM2314 -138q0 3 6 8h6q9 -2 9 -11q-6 -11 -12 -11q-9 1 -9 11v3zM2095 -36q3 6 12 6q6 -3 9 -8q0 -9 -12 -9h-3q-3 0 -6 5v6zM2743 -42v6l9 6h3q3 0 6 -6v-6q-3 -5 -9 -8q-5 3 -9 8z" />
    <glyph glyph-name="uniE737" unicode="&#xe737;" horiz-adv-x="872" 
d="M401 191q-80 36 -80 100v20q0 86 115 110q115 -24 115 -110v-20q0 -64 -80 -100q51 -171 78 -267t32 -119v-5h-290v5q0 12 110 386zM246 692q8 5 20 5q30 0 30 -35q0 -22 -106 -80q-125 -131 -125 -281q0 -182 181 -321v-20q0 -5 -26 -25h-5q-105 38 -185 211
q-30 95 -30 155q0 249 246 391zM576 677q8 20 35 20q134 -55 201 -180q60 -109 60 -216q0 -223 -206 -366h-15q-6 0 -25 25v5q0 24 76 81q105 120 105 255q0 217 -226 346q-5 10 -5 20v10zM286 517h25q8 0 20 -20v-20q-90 -85 -90 -151v-35q0 -68 55 -130v-25
q-8 -20 -35 -20h-5q-81 71 -81 175v30q0 111 111 196zM561 517h25q111 -85 111 -196v-30q0 -104 -81 -175h-5q-27 0 -35 20v25q55 64 55 130v20q0 85 -90 166v20q0 6 20 20z" />
    <glyph glyph-name="uniE738" unicode="&#xe738;" horiz-adv-x="996" 
d="M0 -88v625q15 122 107 122h782q94 0 107 -127v-620q-25 -112 -96 -112h-803q-73 0 -97 112zM66 -73q0 -61 46 -61h783q35 15 35 61v534h-864v-534zM620 222h10q148 -89 178 -117v-10q0 -9 -51 -21l56 -81v-5q0 -9 -35 -30l-71 81q-20 -38 -31 -41h-5q-22 0 -61 219z
M402 303v41q0 8 15 15h361q10 -1 10 -10v-46q0 -10 -10 -10h-366q-10 0 -10 10zM203 -42v96q0 8 21 20h101q9 0 16 -15v-107q0 -8 -16 -15h-101q-7 0 -21 21zM402 -22v46q1 10 10 10h183q12 0 30 -66h-213q-10 0 -10 10zM402 181q0 8 15 15h137q15 0 25 -61l-10 -5h-157
q-10 0 -10 11v40zM203 313q0 13 21 16q4 0 35 -26h5q4 0 77 76h5q10 -1 10 -10v-10q-73 -107 -87 -112h-5q-9 2 -61 66zM219 191h10q26 -25 40 -25q63 74 72 76h5q10 -1 10 -10v-10q-79 -112 -87 -112h-5q-5 0 -61 66q0 8 16 15zM305 -27v66h-66v-66h66zM564 542
q0 -7 15 -15h36q8 0 15 15v36q0 8 -15 15h-36q-7 0 -15 -15v-36zM829 542q0 -7 15 -15h35q9 0 16 15v36q0 8 -16 15h-35q-7 0 -15 -15v-36zM696 578v-36q0 -8 16 -15h35q8 0 15 15v36q0 8 -15 15h-35q-8 0 -16 -15z" />
    <glyph glyph-name="uniE739" unicode="&#xe739;" horiz-adv-x="993" 
d="M186 -153q0 36 12.5 72.5t41.5 70.5q17 20 136 66q45 23 45 25q-19 20 -33 60q-37 37 -37 84q0 25 14 25v23q0 96 46 120q32 24 78 24h15q97 0 122 -91q1 -18 1.5 -31.5t0.5 -21.5v-23q14 0 14 -29q0 -37 -41 -87q0 -15 -29 -55q28 -14 68.5 -32.5t94.5 -40.5
q72 -68 72 -161q-103 -45 -311 -45q-198 0 -308 43zM70 120q118 50 163 76q-22 27 -33 62q-35 38 -35 73v14q0 19 13 19v57q0 81 90 106q11 5 36 6q102 0 130 -78q4 -11 4 -17q0 -3 -40 -21q-55 -42 -55 -111v-56q-15 -10 -15 -25v-22q0 -36 44 -89l8 -27v-2
q-67 -28 -107 -46t-54 -28q-26 -26 -52 -89q-144 18 -167 39v4q0 88 70 155zM555 438q0 37 48 76q39 19 80 19q109 0 131 -99v-70q14 0 14 -19v-14q0 -33 -39 -81q-4 -25 -29 -54q43 -26 163 -76q14 -9 27 -27.5t22.5 -41t15 -46t5.5 -40.5v-4q-21 -21 -167 -39
q-31 79 -64 97q-34 19 -149 66q1 27 29 56q23 35 23 66v18q0 15 -15 25v56q0 95 -95 130v2z" />
    <glyph glyph-name="uniE740" unicode="&#xe740;" horiz-adv-x="997" 
d="M41 570h532q40 91 123 91q85 0 124 -91h136q41 -5 41 -40q-7 -39 -34 -39h-143q-37 -91 -124 -91t-123 91h-534q-39 8 -39 39q6 40 41 40zM0 231q0 35 50 40h61q10 18 18.5 31t15.5 21q43 37 86 37h11q80 0 118 -89h594q43 -4 43 -40q0 -41 -50 -41h-584l-28 -46
q-43 -43 -93 -43h-13q-71 0 -118 89h-61q-50 5 -50 41zM34 -30h539q36 91 123 91h2q42 0 73.5 -21t46.5 -66q1 -4 4 -4h136q39 -8 39 -39q-6 -40 -41 -40h-134q-8 -16 -15 -28t-14 -20q-44 -43 -95 -43q-86 0 -125 91h-532q-41 6 -41 38v2q8 39 34 39z" />
    <glyph glyph-name="uniE741" unicode="&#xe741;" horiz-adv-x="1796" 
d="M43 105q40 43 69 43q36 0 43 -46q0 -18 3 -26h2q71 68 137 68q22 0 38.5 -13.5t24.5 -42.5q3 -12 6 -12h6q63 68 127 68q43 0 60 -47q3 -15 3 -24v-19q0 -23 -22 -129q6 -26 22 -26q39 0 152 149q24 23 46.5 40t46 29t50 19.5t59.5 11.5q54 0 54 -64v-11q0 -22 -21 -129
v-5q3 -24 26 -24q42 9 84 91q15 42 15 66q0 22 -26 33q-29 8 -29 10q36 37 74 37h6q23 0 41.5 -12.5t35.5 -35.5q5 -6 11 -8q3 0 56 35q33 16 66 16h11q54 0 54 -66q0 -20 -24 -136q5 -27 27 -27h4q24 0 67 93q47 81 116 101q4 0 16 3l2 -3q-64 -79 -64 -141v-3
q0 -56 46 -56q27 0 44 17t26.5 41.5t13 51.5t3.5 48q0 11 -1.5 28.5t-3.5 41.5q3 3 19 5q66 0 89 -56q5 -22 5 -35q-8 -65 -12.5 -99t-4.5 -38v-5q0 -10 9 -10q20 10 24 10h3q11 0 18 -15v-4q0 -13 -80 -79q-18 -12 -33 -12q-30 0 -53 65q-70 -59 -128 -59q-48 0 -67 61
q0 3 -8 8q-3 0 -29 -26q-50 -43 -101 -43q-31 0 -47 20.5t-16 49.5v19q0 22 22 131q0 19 -26 24q-50 -16 -126 -121q-64 -74 -107 -91q-65 -35 -112 -35h-11q-48 0 -48 62v5q0 23 21 137v4q-3 23 -24 23h-3q-14 0 -33.5 -17.5t-40.5 -55.5q-20 -35 -27 -83q0 -36 56 -48v-3
q-53 -29 -90 -29q-38 0 -67 51l-9 5q-4 0 -56 -35q-36 -16 -69 -16h-6q-56 0 -56 67q0 18 24 134q-4 27 -27 27h-2q-26 0 -67 -89q-20 -38 -64 -78q-36 -23 -65 -28l-2 4q0 13 25 39q28 41 28 85q0 70 -50 70q-56 0 -83 -113q-3 -20 -3 -38v-19q0 -14 1.5 -29t3.5 -32
q-58 0 -90 38q-14 25 -14 58q0 2 4.5 35.5t14.5 98.5q0 14 -11 14q-1 0 -24 -9h-3q-10 0 -18 14v5q0 12 43 46z" />
    <glyph glyph-name="uniE742" unicode="&#xe742;" horiz-adv-x="897" 
d="M0 -83q0 6 14 14h47q-47 47 -47 107q21 145 145 145q125 0 145 -149q0 -50 -47 -103h173q6 0 14 -14v-10q0 -6 -14 -14h-393v-37q0 -7 19 -19h710l-4 47v9h-187q-6 0 -14 14v10q0 6 14 14h210q6 0 14 -14v-47q0 -33 33 -33h9q7 0 19 19v682q0 38 -52 47h-79
q-3 -75 -52 -75h-9q-47 9 -47 47v28h-294v-23q0 -47 -56 -52q-51 8 -51 52v23h-66q-61 0 -61 -66v-42h622q28 -1 28 -14v-14q0 -9 -10 -9h-630q-10 -1 -10 -9v-201q0 -6 -14 -14h-9q-14 5 -14 28v261q0 117 94 117h70v24q8 51 51 51h9q42 0 47 -56v-19h294v28q11 47 47 47h9
q52 0 52 -75h65q103 -7 103 -84v-673q-8 -65 -65 -65h-767q-65 8 -65 65v52zM51 34q19 -103 103 -103h10q87 0 102 112q-19 103 -102 103h-10q-103 -21 -103 -103v-9zM327 286q19 61 61 61h9q52 0 66 -56v-19q0 -50 -71 -61q-51 0 -65 75zM654 286q19 61 61 61h9
q52 0 66 -56v-19q0 -50 -71 -61q-51 0 -65 75zM164 286q18 61 60 61h10q51 0 65 -56v-19q0 -51 -70 -61q-51 0 -65 75zM551 347h10q51 0 65 -56v-19q0 -51 -70 -61q-51 0 -65 75q18 61 60 61zM327 104q20 60 61 60h9q52 0 66 -56v-18q0 -50 -71 -61q-51 0 -65 75zM654 104
q20 60 61 60h9q52 0 66 -56v-18q0 -50 -71 -61q-51 0 -65 75zM491 104q18 60 60 60h10q51 0 65 -56v-18q0 -51 -70 -61q-51 0 -65 75zM89 38l14 10h9q20 -19 23 -19h5l61 56h14q9 -1 9 -9v-14q0 -7 -79 -80h-14q-42 32 -42 56zM257 562q0 -6 14 -14h9q10 0 10 9v93
q0 10 -10 10h-18l-5 -24v-74zM668 548h9q6 0 14 14v84q0 6 -14 14h-9q-9 -1 -9 -10v-93q2 -9 9 -9zM691 94q10 -28 38 -28q23 8 23 33v9q0 9 -19 19h-9q-33 0 -33 -33zM364 94q10 -28 38 -28q23 8 23 33v9q0 9 -19 19h-9q-33 0 -33 -33zM565 66q24 8 24 33v9q0 9 -19 19h-9
q-33 0 -33 -33q10 -28 37 -28zM729 249q23 6 23 32v10q0 8 -19 18h-9q-33 0 -33 -32q10 -28 38 -28zM402 249q23 6 23 32v10q0 8 -19 18h-9q-33 0 -33 -32q10 -28 38 -28zM528 277q10 -28 37 -28q24 6 24 32v10q0 8 -19 18h-9q-33 0 -33 -32zM201 277q10 -28 37 -28
q24 6 24 32v10q0 8 -19 18h-9q-33 0 -33 -32zM491 -83l18 14h5q6 0 14 -14v-10q0 -6 -14 -14h-9q-11 0 -14 24zM790 463q0 11 23 14l14 -18v-5q0 -6 -14 -14h-9q-6 0 -14 14v9z" />
    <glyph glyph-name="uniE743" unicode="&#xe743;" horiz-adv-x="994" 
d="M0 -153v571q7 46 47 46h309v-5q-20 -4 -109 -93h-146v-467h647v150q2 6 98 83l3 -5v-267q-6 -60 -44 -60h-758q-47 8 -47 47zM249 54q0 119 91 268q119 153 306 153h5l13 2v151h3q322 -239 327 -247v-2q-322 -244 -330 -244v163q-206 0 -298 -96q-42 -43 -69.5 -80
t-42.5 -68h-5z" />
    <glyph glyph-name="uniE744" unicode="&#xe744;" horiz-adv-x="996" 
d="M0 115v167q14 107 100 107h41q115 208 341 208h33q225 0 340 -208h42q85 0 99 -107v-167q-14 -107 -99 -107h-42q-115 -208 -340 -208h-33q-226 0 -341 208h-41q-86 0 -100 107zM83 57h830q42 20 42 83v117q0 64 -42 83h-830q-41 -20 -41 -83v-117q0 -63 41 -83zM125 290
l24 16h9q21 0 33 -99q37 58 50 58q26 0 33 -66h8q12 107 42 107q12 0 25 -24q-41 -191 -67 -191q-23 0 -41 74h-9q-11 -74 -33 -74h-8q-21 0 -66 199zM672 306q30 0 42 -107h8q9 66 33 66q13 0 50 -58q11 99 34 99h8l25 -16q-46 -199 -67 -199h-8q-21 0 -33 74h-9
q-17 -74 -33 -74h-8q-29 0 -66 199zM390 298l17 8h8q18 0 42 -99h8q0 45 33 58q33 -13 33 -58q12 0 42 99h16q17 0 17 -24q-38 -191 -58 -191h-8q-25 0 -34 66h-16q-7 -66 -33 -66h-9q-25 0 -58 207zM473 -150v158h-133q0 -95 133 -158zM531 -150q125 74 125 158h-133v-158
h8zM473 389v158h-8q-125 -77 -125 -158h133zM523 547v-158h133q0 81 -125 158h-8zM191 8q75 -105 158 -133v8q-58 91 -58 125h-100zM191 389h100q0 34 58 125v8q-83 -28 -158 -133zM648 514q58 -91 58 -125h99q-75 105 -157 133v-8zM648 -125q82 28 157 133h-99
q0 -34 -58 -125v-8z" />
    <glyph glyph-name="uniE745" unicode="&#xe745;" horiz-adv-x="898" 
d="M0 -154q0 240 155 240q0 14 170 62v31q-77 71 -77 217q-31 25 -31 78v77q23 147 147 147h224q16 0 55 -70q23 0 38 -69v-109q-63 -251 -100 -255l-8 -16v-31q310 -76 310 -170q15 -98 15 -132q0 -46 -54 -46h-805q-39 22 -39 46zM286 458v-101q0 -148 155 -201h8
q163 55 163 178v147q0 37 -132 62q-72 -23 -93 -23h-62q-39 -19 -39 -62zM844 -169q11 0 23 23q-14 194 -101 194q-108 38 -116 38q31 -53 31 -77q-46 -7 -46 -15q8 -16 8 -24q-148 -132 -148 -139h349zM54 -169h349l-148 147v23q-38 0 -38 24l31 61h-8q-194 -47 -194 -139
l-15 -101zM255 481q0 85 194 85q0 16 46 16q148 -39 148 -108h7v69q0 40 -62 85q8 16 8 24l-23 15h-194q-131 0 -131 -155v-31h7zM480 55q39 -46 39 -61q14 1 69 108q0 15 -15 15q-36 0 -93 -54v-8zM310 110q34 -78 69 -116q0 13 47 69q-72 54 -101 54zM310 32v-7
q0 -22 -16 -47q71 -62 78 -62v8q-59 115 -93 155q-16 -41 -16 -47h47zM526 -76v-8h8l70 62q-16 25 -16 47h-7q0 -13 -55 -101zM364 156h-8q2 -8 85 -62h16q65 47 77 47v7h-8q-38 -23 -62 -23h-30q-30 0 -70 31zM434 -115q10 -31 23 -31l7 31l-7 93h-8q-15 -74 -15 -93z
M635 32q0 39 -23 47l-24 -47h47zM434 17q1 -16 15 -16q15 0 15 16q0 15 -15 15q-15 -1 -15 -15zM488 -14v-31q1 -16 15 -16q0 8 8 24q-16 0 -16 23h-7zM395 -37v-8q1 -16 15 -16v39q-15 -2 -15 -15z" />
    <glyph glyph-name="uniE746" unicode="&#xe746;" horiz-adv-x="711" 
d="M0 -77q45 538 54 590q11 11 21 11h104q0 88 86 148q45 24 85 24h11q92 0 151 -95q20 -45 20 -77h104q27 0 27 -52q48 -534 48 -552q0 -48 -56 -89q-34 -21 -74 -21h-451q-74 0 -116 65q-14 26 -14 48zM49 -79q0 -25 37 -50q23 -12 47 -12h448q54 0 78 51q3 10 3 13
q-22 252 -34.5 389t-15.5 163h-80v-70q-3 -29 -23 -29h-5q-20 0 -23 29v70h-252v-77q-4 -22 -22 -22h-4q-20 0 -24 25v74h-82v-2zM253 84l73 74q-107 104 -107 112v8q0 16 21 19q14 0 44 -36l73 -71q107 105 109 105q6 2 9 2q17 0 20 -24q0 -9 -38 -44l-70 -72l93 -93
q21 -18 21 -25v-9q-5 -17 -17 -17h-9q-9 0 -43 40l-75 73q-113 -113 -116 -113h-12q-14 0 -17 21q0 14 41 50zM481 524v6q0 56 -62 100q-31 17 -63 17q-84 0 -120 -86q-6 -19 -6 -36v-1h251z" />
    <glyph glyph-name="uniE747" unicode="&#xe747;" horiz-adv-x="441" 
d="M0 228v185q0 9 31 13h54q5 0 9 9v111q6 49 54 103q50 41 88 51q2 6 6 6h192q7 -1 7 -6v-180q-4 -9 -19 -9h-73q-31 0 -31 -25l3 -19v-3l-3 -19q4 -19 9 -19h82q32 -5 32 -13v-160q0 -35 -54 -41h-44q-7 0 -13 3q-6 0 -12 -16l3 -22v-295q0 -45 -22 -57h-189
q-19 12 -19 47v337q0 6 -6 6h-44q-41 2 -41 13zM28 278q1 -19 10 -19h69q28 -4 28 -28v-22q0 -123 3 -290q-3 -27 -3 -47l10 -6h122q7 0 7 6v356q0 31 56 31h22l38 -3q7 0 19 116v4q0 6 -6 6h-92q-37 0 -37 35v72q11 66 66 66h63q5 0 9 9v92q0 5 -9 9h-47q-135 0 -151 -31
q-19 0 -51 -51q-12 -22 -12 -31v-126q0 -44 -35 -44h-69q-10 -3 -10 -19v-85zM170 52q19 -7 19 -35v-104q0 -35 -25 -35h-4q-15 7 -15 32v94q0 7 -3 13q5 35 28 35zM145 96q6 19 15 22h4q22 0 22 -22v-7q0 -16 -10 -19h-19q-9 0 -12 26z" />
    <glyph glyph-name="uniE748" unicode="&#xe748;" horiz-adv-x="875" 
d="M0 7v487q0 1 1 1h6q1 2 2 5.5t2 8.5q1 13 7 22l3.5 7l6.5 13q9 12 12 23l10 10q1 3 13 17q4 8 19 20q8 6 15 13q6 3 15 12l16 9q9 8 18 9q3 2 6 4.5t8 4.5q3 2 10 2.5t16 3.5q2 1 4 1l1 1v7h493v-7l2 -1q4 0 7 -1q20 -3 25 -8q2 -2 8 -4.5t14 -6.5q10 -8 18 -11
q4 0 11 -9q11 -7 14 -11q2 -1 4 -3q6 -4 12 -10q4 -4 7 -8.5t8 -9.5q14 -14 23 -29.5t17 -32.5q7 -8 10 -26q2 -10 4 -15h6q1 0 1 -1v-487q0 -1 -1 -1h-6q-1 -2 -2 -5.5t-2 -8.5q-1 -7 -2 -13t-4 -9q-2 -2 -10 -20q-10 -11 -13 -23l-10 -10q-1 -3 -13 -17q-4 -8 -19 -20
q-8 -6 -15 -13q-6 -3 -15 -12l-16 -9q-9 -8 -18 -9q-3 -2 -6 -4.5t-8 -4.5q-3 -2 -10 -2.5t-16 -3.5q-1 -1 -4 -1l-1 -1v-7h-493v7l-2 1q-4 0 -7 1q-20 3 -25 8q-2 2 -8 4.5t-14 6.5q-10 8 -18 11q-3 0 -11 9q-10 7 -14 11q-2 1 -4 3q-6 4 -12 10t-15 17t-13 18
q-8 6 -15 20.5t-12 24.5q-8 10 -11 28q-1 10 -3 13h-6q-1 0 -1 1zM42 424v-347q1 -58 5 -58q8 -17 10 -28q2 -10 7 -15q1 -1 3.5 -5.5t6.5 -14.5q4 -5 7.5 -10t7.5 -10q3 -2 5.5 -6t6.5 -8q12 -12 26 -23.5t30 -17.5q10 -9 17 -10q4 0 10 -2.5t17 -7.5q12 -5 26 -5q9 1 9 4
q0 1 -3 3t-5 8q-1 3 -1 6v2q0 15 13 19q5 2 17 3h140q12 -1 22 -5t10 -18q0 -7 -11 -18q-1 -1 -1 -2q0 -2 11 -4h18q12 0 12 4l-8 10q-4 5 -4 11q0 11 7.5 16t17.5 5h2q23 -3 23 -20v-2q0 -9 -13 -18v-2q1 -4 8 -4h111q7 0 22 1t40 3q2 0 7.5 2.5t16.5 6.5q7 2 12.5 3t7.5 3
q6 4 10 8q17 6 20 11q5 4 9 6.5t6 4.5q1 1 5 4t10 9l7.5 7.5t5.5 7.5q9 8 11 14q5 5 8 10.5t5 10.5q1 2 2 5t6 8t6 16q0 6 9 25q2 0 5 57v347q-1 58 -5 58q-8 17 -10 28q-1 9 -8 16q-3 3 -9 19q-12 17 -22 27q-1 2 -6 7l-11 11t-11.5 10.5t-7.5 5.5q-3 1 -10 8q-12 4 -15 7
l-10 7q-7 2 -19 5q-13 8 -21 9q0 2 -66 5h-329q-7 0 -22 -1t-40 -3q-2 0 -7.5 -2.5t-16.5 -6.5q-7 -2 -12.5 -3t-7.5 -3q-6 -4 -10 -8q-17 -6 -20 -11q-5 -4 -9 -6.5t-6 -4.5q-1 -1 -15 -12q-4 -5 -7.5 -8.5t-5.5 -7.5q-9 -8 -11 -14q-9 -9 -13 -20q-1 -2 -2 -5.5t-6 -8.5
t-6 -16q0 -5 -9 -25q-2 0 -5 -57zM95 83v335q0 10 3 19t5 20q2 6 3 13.5t2 17.5q2 5 9 14q7 15 13 20q3 5 5.5 9.5t5.5 7.5l11 11l14 9q4 2 8.5 5.5t9.5 5.5q11 8 15.5 10t18.5 3q5 2 11 3.5t13 3.5q12 4 28 4h335q21 0 43 -9q5 -1 11.5 -2t16.5 -2q5 -1 9 -6q4 -4 7 -5
q8 -2 18 -13q7 -4 11.5 -6.5t6.5 -4.5q0 -2 10 -12q5 -10 12 -17q5 -8 8.5 -13.5t5.5 -8.5q5 -8 5 -22q2 -10 4 -17.5t4 -13.5q3 -12 3 -24v-335q0 -20 -7 -38q-3 -9 -5 -30l-2.5 -4.5t-5.5 -10t-6 -10t-4 -5.5q-5 -5 -6.5 -8.5t-3.5 -7.5q-1 -2 -10.5 -11t-13.5 -11
q-6 -3 -14 -10q-7 -3 -11 -6.5t-9 -6.5q-7 -5 -15 -5q-9 0 -30 -7q-17 -5 -33 -5h-103q-9 0 -15 1l-15 -1q-6 1 -9.5 1h-4.5q-5 -1 -9 -1h-6h-9h-6t-10 1l-20 -2h-130q-7 0 -27 6q-20 7 -37 8q-7 0 -16 9q-16 8 -21 13t-14 9l-14 14l-8 14q-6 4 -12 18q-10 11 -10 14
q-1 6 -3 21q-1 7 -3 13.5t-4 11.5q-3 12 -3 26zM140 83q0 -23 8 -44q4 -16 14 -33.5t25 -26.5q2 0 4.5 -2.5t8.5 -6.5q8 -5 40 -14q9 -4 40 -4h315q38 0 51 7q25 7 32 14q5 5 14 9q15 13 16 19l11 14q5 5 9 27q7 15 7 41v335q0 22 -7 43q-3 15 -16.5 36.5t-28.5 27.5
q-15 15 -41.5 19.5t-46.5 4.5h-315q-38 0 -51 -7q-25 -7 -32 -14q-5 -5 -14 -9q-15 -12 -17 -19l-12 -17q-2 -6 -3.5 -12t-3.5 -12q-7 -15 -7 -41v-335zM207 250v1q0 15 10 65q4 11 10 26t13 23q5 14 15 23q2 2 9.5 12t9.5 12q5 5 9 8t9 8q10 6 16 12q2 2 16 8q9 8 24 14
t31 10.5t32 6.5t27 2q7 0 25 -1t45 -10q6 -2 21 -9t18 -10t16 -9q4 -2 13 -9.5t13 -11.5q13 -9 19 -19l7.5 -7.5t5.5 -7.5q9 -8 14 -23q10 -10 13 -23q1 -5 6 -13q1 -2 3.5 -13t4.5 -24t4 -25t2 -15v-1q0 -15 -10 -65q-4 -11 -10 -26t-13 -23q-5 -14 -15 -23q-4 -8 -10 -12
l-9 -12q-5 -4 -9 -7.5t-9 -8.5q-10 -6 -16 -12q-2 -2 -16 -8q-9 -8 -24 -14t-31 -10.5t-32 -6.5t-27 -2q-21 0 -43 4.5t-41 13.5q-11 4 -28.5 13.5t-25.5 17.5q-6 3 -17 14q-8 5 -13 13q-12 12 -13 16q-13 15 -14 20q-1 4 -10 15q-9 22 -12 28q-4 19 -6 35q-3 14 -5 26
t-2 14zM257 211q3 -6 4 -13t3 -15q0 -3 9 -17q2 -1 6 -12l9 -13q0 -1 6 -5t11 -15q1 -2 12.5 -11t13.5 -11q11 -10 19 -11q4 0 14 -9q7 -2 22 -5q24 -8 33 -8q5 -1 9.5 -1.5t9.5 -0.5q16 0 38 6q5 2 12.5 3t16.5 4q2 1 6 3.5t10 5.5q8 4 14 6l10 8q5 2 8.5 5.5l7.5 7.5
q3 1 9.5 8t13 15.5t11.5 16.5t5 11q8 11 10.5 17t4.5 20q8 24 8 33q1 5 1 17q-1 16 -2.5 25.5t-3.5 13.5q-4 10 -7 28q0 4 -9 17l-6 12l-9 13q0 1 -6 5t-11 15q-1 2 -12.5 11t-13.5 11q-11 10 -19 11q-3 0 -14 9q-7 2 -22 5q-24 8 -33 8q-12 2 -18 2q-16 0 -39 -6
q-5 -2 -12.5 -3t-16.5 -4q-2 -1 -6 -3.5t-10 -5.5q-8 -4 -14 -6l-10 -8q-5 -2 -8.5 -5.5l-7.5 -7.5q-3 -1 -9.5 -8t-13 -15.5t-11.5 -16.5t-5 -11q-8 -11 -10.5 -17t-4.5 -20q-7 -21 -7 -33q-2 -10 -2 -17q1 -16 2.5 -25.5t3.5 -13.5zM306 251q0 6 4 21q3 30 6 30q2 3 4.5 6
t4.5 8t12 17q6 13 15 16q3 2 6.5 4.5t7.5 6.5q7 3 11 6t7 5q8 5 22 5q14 2 27 6h5q5 0 20 -4l26 -3q3 -1 14 -9q5 -2 10 -5.5t10 -7.5q3 -3 11 -7q5 -5 9 -13q9 -9 14 -21l9 -12q1 -2 4 -30q4 -12 4 -19v-1q0 -6 -4 -21q-3 -30 -6 -30q-2 -3 -4.5 -6t-4.5 -8t-12 -17
q-6 -13 -15 -16q-3 -2 -6.5 -4.5t-7.5 -6.5q-7 -3 -11 -6t-7 -5q-8 -5 -22 -5q-13 -1 -27 -6h-5q-5 0 -20 4l-26 3q-4 1 -13 9q-5 2 -10 6.5t-10 6.5q-2 1 -4.5 3t-7.5 4q-5 5 -9 13q-9 9 -14 21l-9 12q-1 2 -4 30q-4 12 -4 19v1zM355 228q0 -3 5 -20l9 -11q4 -9 14 -14
q2 0 9 -7q2 -2 6 -3t9 -3t11 -3.5t13 -3.5h7q5 0 23 5q18 3 24 9t14 10q3 3 11 16q3 3 10 24q1 2 2 6.5t3 10.5v7q0 4 -5 22q0 3 -5 20l-9 11q-4 9 -14 14q-2 0 -9 7q-4 5 -27 9q-9 4 -18 4h-1q-5 0 -23 -5q-18 -3 -24 -9t-14 -10q-3 -3 -11 -16q-3 -3 -10 -24
q-1 -2 -2 -6.5t-3 -10.5v-7q0 -4 5 -22zM592 462v3q0 7 9 29q16 17 21 19q10 3 15.5 6t9.5 3h2q23 0 41.5 -19.5t18.5 -41.5q0 -7 -6 -19.5t-11 -17.5l-9 -9q-10 -6 -30 -10h-3q-7 0 -31 9q-21 20 -21 26q-6 17 -6 22zM648 451h2q5 0 9.5 3t4.5 9v1q0 9 -12 13h-3
q-4 0 -7.5 -4t-3.5 -8v-2q0 -8 10 -12z" />
    <glyph glyph-name="uniE749" unicode="&#xe749;" horiz-adv-x="993" 
d="M0 269v46q0 22 241 107q653 255 667 255h70q6 0 15 -14v-78q-10 -6 -22 -82l-138 -656q-13 -21 -18 -21h-56q-15 0 -224 156h-10q-131 -104 -149 -110h-14q-44 0 -64 99q-26 86 -42.5 134.5t-21.5 60.5q-91 35 -144 56t-69 29q-21 14 -21 18zM284 188l74 -249
q5 -14 11 -14t124 96q27 11 32 11h7q30 0 181 -121q6 0 67 -46h3q16 61 56 249.5t104 509.5h4q-5 14 -15 14q-17 -9 -237 -94t-642 -246v-11q215 -69 231 -99zM308 220q0 37 125 102q285 182 322 195h18q12 -5 21 -28q0 -20 -191 -191q-167 -150 -167 -167q-16 -99 -25 -106
q0 -8 -28 -15q-37 0 -60 135q-15 29 -15 39v36zM801 173q25 0 25 -24v-7q-41 -224 -57 -224h-17q-15 7 -15 18q36 237 64 237zM358 212q0 -25 18 -88h7q0 54 120 145q1 2 89 89v3q-197 -112 -234 -149zM798 234q4 28 28 28h4q4 0 17 -18v-10q0 -32 -28 -32h-4q-17 9 -17 32z
" />
    <glyph glyph-name="uniE750" unicode="&#xe750;" horiz-adv-x="979" 
d="M0 -62v50h7q18 15 31 15h7q15 -1 23 -1.5t9 -0.5q5 1 16.5 2t28.5 2q34 1 39 5q2 0 16 7q5 2 21 4q7 3 7 6v1q-4 5 -18 13q-12 8 -17 12q-12 12 -16 15q-1 4 -15 16l-6 10t-7 9q-5 5 -12 22q-7 7 -11 19.5t-4 22.5q0 4 3 20v1q0 7 -7 13q-1 1 -4 4.5t-9 9.5q-9 9 -10 15
q-3 3 -9 13q-2 3 -9 19q-9 12 -9 18q-3 13 -6 23t-5 18q-4 17 -4 30v5q0 9 10 23q0 1 13 14q1 3 1 6q0 1 -8 15q-2 5 -4.5 15.5t-4.5 21.5t-3.5 21.5t-1.5 16.5q0 5 8 42q5 35 8 35q8 14 9 21q2 6 10 18t13 12q7 4 20 4q15 0 28 -13l7 -7l13 -13l17 -17l10 -10l15 -15
q2 -2 5.5 -3.5t8.5 -6.5q4 -4 8 -6t7 -4q5 -3 15 -12q12 -5 21 -14q7 -4 12 -6.5t7 -4.5q3 -3 9.5 -4.5t14.5 -5.5q9 -4 18 -10q5 -2 10 -3.5t11 -3.5q16 -10 20 -10q14 -2 23.5 -3.5t15.5 -3.5q21 -10 36 -10h3q6 3 6 13v10q0 22 10 42q3 6 6 21q1 7 11 18q9 23 33.5 47.5
t47.5 37.5q5 6 28 14q13 8 25 10q0 2 30 6v7h51v-7q11 -4 34 -5q20 -2 25 -5q5 -4 11 -7l14 -7q7 -5 12 -7.5t8 -4.5t6.5 -5t8.5 -6t12 -3q9 0 20 8q8 6 18 7q10 2 25 11l27 9q10 5 16 5q15 0 24 -10t13 -24v-8q0 -4 -5 -19v-5q0 -8 11 -14q8 -8 9 -8h7v-54h-7
q-1 -1 -2.5 -3l-4.5 -6q-10 -13 -13 -16q-4 -9 -13 -17q-3 -6 -21 -20q-1 -3 -17 -16q-10 -9 -10 -24v-3q0 -25 -6 -76q-2 -7 -4 -14.5t-4 -17.5q-2 -12 -4.5 -20t-4.5 -13q-6 -12 -6 -18q-1 -2 -4 -24q-2 -4 -4 -7.5t-4 -6.5q-4 -8 -8 -20l-9 -14q-8 -22 -11 -25
q-2 -2 -3.5 -8.5t-6.5 -14.5q-1 -3 -9 -12q-2 -5 -6.5 -10t-9.5 -12q-6 -11 -19 -28t-21 -27l-15.5 -15.5t-26.5 -26t-25.5 -24t-13.5 -10.5q-3 0 -14 -10q-15 -8 -19 -12t-17 -10q-15 -11 -23 -15q-1 0 -13 -9q-9 -3 -17 -6.5t-16 -8.5q-4 -3 -20 -6q-5 -1 -15 -7
q-7 -5 -21 -6q-12 -2 -24 -7q-26 -8 -37 -8l-51 -5h-1v-7q0 -1 -1 -1h-105v8h-1q-69 5 -83 13q-4 2 -12 3.5t-21 3.5q-10 2 -22 10q-8 4 -27 7q-4 2 -8 4.5t-9 5.5q-10 2 -16 6t-11 7q-6 4 -18 8q-4 1 -13 9q-12 5 -16 9l-8 8h-6q-1 0 -1 1zM82 -51q0 -2 5 -5t11.5 -6.5
t13 -6t9.5 -2.5q5 -1 10 -3.5l11 -5.5q1 0 8.5 -2.5t17.5 -6.5q11 -3 25 -8q4 -1 14 -2t27 -3q14 -4 41 -7q13 -2 24.5 -2.5t21.5 -1.5q8 0 26.5 1.5t47.5 5.5q8 2 20.5 3t30.5 4l10 2t11 6q4 3 28 8q5 2 8 4.5t8 4.5q2 1 8 2.5l14 3.5l24 11q2 1 6.5 2t9.5 5q10 8 19 12
l13 11q15 7 20 12q2 2 6.5 4.5t9.5 5.5q6 4 17 14t22.5 21t21.5 21.5t13 15.5q5 8 11 14l12 18q9 9 13 18q2 2 6 7.5t8 11.5t7 11.5t3 6.5q4 14 12 25q4 6 8 20q11 17 12 22q6 23 10 33q5 12 8 35q0 3 10 27q3 18 6 96v5q0 12 9 22q2 4 10.5 11.5t22.5 21.5q2 2 7 5t11 11
t6 9q1 0 2 4q0 4 -8 4h-7q-24 0 -24 25q0 11 10 20q5 11 9 17q5 7 5 9q-1 3 -5 3q-3 0 -18 -9q-3 -2 -27 -7q-18 -9 -23 -10t-7.5 -1h-3.5q-13 0 -24 8l-20 12q-7 8 -16 11q-4 2 -12 9q-8 5 -20 5q-14 2 -23.5 4t-14.5 4q-7 3 -15 3q-3 0 -10 -2t-18 -5q-6 -2 -15 -2.5
t-20 -2.5q-8 -2 -18 -10q-8 -5 -13 -8.5t-7 -5.5q-7 -5 -16 -9q-9 -7 -13 -15q-12 -14 -13 -19q-15 -18 -17 -26q-9 -19 -11 -42q-4 -27 -4 -34v-12q0 -17 -14 -29q-7 -4 -17 -4q-9 0 -23 3t-33 8q-5 1 -41 6q-4 0 -24 11q-5 2 -10 2.5t-10 2.5q-6 2 -16 9q-8 3 -24 7
q-7 5 -14 8.5t-14 6.5q-2 1 -4.5 3.5t-7.5 6.5q-6 2 -12 6.5t-13 9.5q-11 4 -16 9q-2 2 -7 5.5t-13 7.5q-4 4 -9.5 8.5t-12.5 11.5q-1 1 -5 4.5t-12 11.5q0 1 -4 4.5t-12 11.5q-15 17 -20 17h-1q-6 0 -9 -22q-5 -10 -7.5 -24t-2.5 -25v-2q0 -11 7 -32q2 -8 3 -15l2 -14
q0 -3 3.5 -10t8 -14.5t9.5 -15t8 -10.5q5 -10 5 -18q0 -25 -21 -25h-3q-2 0 -6 0.5t-9 1.5q-6 0 -6 -8v-2q0 -3 8 -25q2 -6 3.5 -12t3.5 -11q10 -16 14 -24q9 -10 18 -23q7 -4 10 -9q7 -5 10 -7.5t5 -4.5t6 -4.5t9 -6.5q8 -13 8 -20q0 -11 -19 -24q-2 -6 -2 -8q0 -9 9 -17
q5 -10 17 -22q8 -11 16 -16q8 -9 21 -15q12 -12 23 -12q2 0 21 -11q11 -3 19.5 -9.5t8.5 -19.5q0 -8 -9.5 -17t-15.5 -9q-14 -4 -22 -10t-18 -7q-5 -1 -9.5 -4t-9.5 -6t-28 -8q-12 -4 -37 -9q-30 -3 -53 -3q-8 -2 -8 -4v-1zM192 409q0 11 11 20q6 3 12 3q5 0 9.5 -2.5
t12.5 -5.5q5 -2 20 -7l18 -10q21 -5 26 -10t22 -8q9 -1 45 -12q15 -3 43 -6q13 -4 22 -9q14 -5 14 -19q0 -13 -8.5 -18t-19.5 -5h-1q-18 0 -47 7q-24 10 -49 10q-11 1 -21 7q-9 6 -19 8q-8 0 -22 11q-4 2 -9 3.5t-13 3.5q-6 4 -10.5 6t-7.5 4q-11 3 -19.5 9t-8.5 20z
M137 473q0 3 9 4h3q9 0 22 -12.5t13 -22.5t-20 -21q-1 -1 -4 -1h-1q-6 0 -23 11q-12 15 -12 24q0 8 13 18z" />
    <glyph glyph-name="uniE751" unicode="&#xe751;" horiz-adv-x="985" 
d="M0 295v118q23 76 48 118q66 99 183 138l34 8h121q134 -37 169 -92q2 -6 2 -14v-9q0 -24 -101 -110q-2 0 -17 -3q-13 0 -53 26q-29 17 -71 17q-24 0 -44 -10t-35.5 -26.5t-26 -37.5t-15.5 -42v-45q14 -60 48 -84q40 -31 87 -31h3q53 0 87 39v3h-87q-45 0 -45 62v53
q0 65 65 65h73q10 0 14 -3l17 3h115q68 0 68 -53v-82q0 -90 -87 -191q-76 -67 -164 -82h-115q-115 26 -177 90q-77 82 -88 155zM208 95q72 -26 121 -26q175 0 254 169q14 65 14 104v17q0 31 -9 31h-256v-84q2 -6 6 -6h135q14 -8 14 -22q-50 -107 -158 -107q-112 0 -169 115
q-10 30 -11 68q0 113 110 169q19 10 68 14q45 0 115 -43q0 4 70 71v3q-85 70 -188 70q-153 0 -245 -144q-37 -68 -37 -137q0 -177 166 -262zM704 438h28q6 0 6 6v36q0 40 59 40h53q56 0 56 -62v-14q2 -6 6 -6h28q26 0 45 -28v-113q-12 -31 -62 -31h-17v-22q0 -59 -53 -59
h-56q-59 5 -59 39v42h-17q-68 0 -68 54v68q8 50 51 50zM698 328q1 -16 9 -16h45q28 0 28 -23v-56l14 -3h62q5 0 5 6v50q5 26 26 26h42l14 2v74q0 5 -6 5h-47q-18 0 -29 20v62h-81v-57q0 -21 -28 -25h-45q-4 0 -9 -8v-57zM369 379h95q15 0 23 -14v-14q0 -3 -14 -14h-113
q-3 0 -14 14v6q0 22 23 22zM504 359q0 19 22 20h12q17 -12 17 -22q-4 -12 -17 -20h-20q-14 8 -14 22z" />
    <glyph glyph-name="uniE752" unicode="&#xe752;" horiz-adv-x="873" 
d="M0 407l114 288l-19 34l38 17h133q51 0 113 -35q0 68 38 68h39q38 0 38 -101h94q87 0 190 -85l-38 -17q133 -267 133 -305q-97 -84 -171 -84q-76 0 -133 84v17l114 305v17l-133 34h-56v-542h113q29 0 76 -68q0 -34 -37 -34h-418q-38 0 -38 34v17q20 51 114 51h75v542
q0 45 -151 67h-57v-16q63 -103 133 -288q-39 -102 -152 -102t-152 102zM57 423h190v17q-81 187 -114 187q0 -34 -76 -204zM797 322q-52 186 -95 186q-76 -173 -76 -186h171zM437 102v644h-20v-644h20zM626 271q6 -34 38 -34h95q38 0 38 34h-171zM76 390q6 -34 38 -34h76
q38 0 38 34h-152z" />
    <glyph glyph-name="uniE753" unicode="&#xe753;" horiz-adv-x="875" 
d="M22 437q0 14 34 29l101 -59h11q0 23 124 168l134 -59q128 149 146 149l123 -80q10 0 112 109h23q16 0 33 -29q-91 -123 -156 -169l-124 79l-135 -129q-32 0 -134 50q-109 -166 -146 -179q-127 90 -146 90v30zM830 476h22q23 -3 23 -20v-436q0 -20 -23 -20h-22
q-23 0 -23 20v436q5 20 23 20zM538 367q5 20 23 20h22q22 -3 22 -20v-347q0 -20 -22 -20h-22q-23 0 -23 20v347zM269 337q3 20 23 20h22q22 -3 22 -20v-317q0 -20 -22 -20h-22q-23 0 -23 20v317zM673 308q3 19 22 19h23q22 -3 22 -19v-288q0 -20 -22 -20h-23q-22 0 -22 20
v288zM0 20v258q3 19 22 19h23q22 -3 22 -19v-258q0 -20 -22 -20h-23q-22 0 -22 20zM404 20v258q3 19 22 19h22q23 -3 23 -19v-258q0 -20 -23 -20h-22q-22 0 -22 20zM135 20v168q3 20 22 20h22q23 -3 23 -20v-168q0 -20 -23 -20h-22q-22 0 -22 20z" />
    <glyph glyph-name="uniE754" unicode="&#xe754;" horiz-adv-x="944" 
d="M0 -103q0 88 164 138q44 21 44 39v5q0 7 -42 71q-25 53 -25 108q0 54 21 92t65 58q24 11 46 11h17q81 0 122 -98q11 -36 11 -65q0 -40 -18 -79.5t-45 -84.5q-5 -8 -5 -13v-5q0 -28 122 -69q86 -44 86 -106v-24q0 -4 -4 -4h-555q-4 0 -4 4v22zM282 464v43q0 106 109 139
q9 1 17 1.5t15 0.5h384q48 0 81.5 -23.5t49.5 -71.5q6 -18 6 -37v-214q0 -90 -101 -128q-15 -4 -36 -4h-90q-126 -130 -128 -130q-8 -5 -17 -5h-11q-42 11 -42 44v6q0 4 3 25.5t10 59.5h-80q-4 0 -4 4q9 38 15 45h124l4 -2q-2 -7 -23 -130q1 1 33 33.5t95 98.5h111
q67 0 89 70v231q0 47 -59 74q-13 4 -25 4h-394q-70 0 -88 -78v-62l-2 -5q-46 7 -46 11z" />
    <glyph glyph-name="uniE755" unicode="&#xe755;" horiz-adv-x="899" 
d="M0 22v631q11 29 33 39l11 5h811q32 -14 38 -32l6 -12v-631q-12 -32 -34 -39q-5 -5 -20 -6h-237q-2 -2 -2 -3l21 -70h7q40 0 65 -46q7 -17 7 -30q0 -18 -21 -30h-471q-21 12 -21 30q0 52 59 75l13 1h6q3 3 22 71l-2 2h-237q-23 0 -34 14t-20 31zM32 643v-611q0 -17 23 -22
q5 -1 10.5 -1h12.5h743q41 0 44 17q2 0 2 6v611q-7 22 -22 22h-791q-22 -7 -22 -22zM59 597q0 18 24 36q15 5 17 5h699q18 0 36 -24q5 -15 5 -17v-462q0 -13 -20 -30q-15 -9 -28 -9h-685q-34 0 -48 38v463zM91 591v-447q2 -15 12 -15h693q11 0 12 15v443q0 19 -17 19h-681
q-19 0 -19 -15zM224 336q0 51 40 115q25 35 50 51q58 46 139 46q85 0 158 -67q55 -65 61 -121q3 -13 3 -20v-30q0 -52 -38 -114q-13 -9 -18 -9h-339q-29 0 -55 102q-1 8 -1 13v8v26zM257 347v-6q2 -2 3 -2h40q13 0 16 -18q-5 -14 -14 -14h-45v-7q5 -41 29 -81h109v1
q-6 12 -6 19q0 14 -1 54.5t-3 107.5q11 23 24 23h13q13 -4 23 -25q26 -51 41 -84t21 -48q3 -7 3 -11v-17q0 -5 -6 -20h108q21 26 30 80v8h-45q-11 0 -14 17q5 15 16 15h43v6q-3 39 -31 85l-12 16q-23 -20 -24 -20h-9q-12 8 -12 16q0 9 20 26v4q-61 43 -107 43l-1 -3v-35
q-2 -20 -14 -20h-5q-12 0 -14 20v35l-1 3q-46 0 -107 -43v-3q20 -20 20 -28q-6 -15 -16 -15h-1q-5 0 -28 20q-34 -41 -43 -99zM307 -95v-1h285v1q-16 66 -22 72h-241q-6 -6 -22 -72zM227 -168v-1l1 -2l2 1h439l2 -1l1 2v1q0 25 -33 39q-5 1 -11 1h-11h-335q-20 0 -37.5 -8.5
t-17.5 -31.5zM358 52v1q0 9 13 16h157q13 -7 13 -16v-1q0 -11 -18 -16l-6 1h-135q-4 0 -5 -1q-19 3 -19 16zM451 219q24 0 27 30q0 23 -28 27q-29 -3 -29 -28q0 -27 30 -29zM419 374v-2v-28t1 -41l2 -1q11 6 19 6h10v2q-26 53 -32 64z" />
    <glyph glyph-name="uniE756" unicode="&#xe756;" horiz-adv-x="886" 
d="M0 300q2 5 8 43q8 32 16 57t19.5 47.5t26 45t34.5 47.5q69 74 97 84q17 12 41.5 24.5t51.5 22.5t53.5 16.5t46.5 6.5q0 2 2 2h93q0 -1 41 -6q8 -4 33 -9q69 -23 100 -43q151 -87 204 -254q8 -20 19 -86v-90q-1 0 -6 -41q-15 -63 -38 -109.5t-64 -96.5q-61 -64 -80 -71
q-41 -30 -95 -52q-81 -26 -112 -26q0 -2 -2 -2h-93q-5 2 -43 8q-32 8 -56.5 16t-46.5 19t-44 25t-48 34q-60 56 -68 72q-61 77 -84 189q-5 32 -6 32v95zM31 254q0 -162 113 -284l2 -1q0 1 1 1l-1 13v53q0 87 30 126q31 57 109 85q27 7 52 7h209q101 0 164 -91
q30 -43 30 -126v-54l-1 -13q18 14 38 41q78 110 78 245q0 85 -32.5 159.5t-88.5 130t-131 87.5t-160 32t-160.5 -32.5t-131 -88t-88 -130.5t-32.5 -160zM178 49v-110q39 -36 82 -55q83 -43 183 -43q147 0 264 96l1 2v107q0 38 -11.5 70t-32.5 55.5t-51.5 37t-69.5 13.5h-200
q-94 0 -145 -83q-20 -37 -20 -90zM294 433q0 49 36 95q34 34 68 45q29 6 40 6h10q45 0 92 -35q23 -23 37.5 -51.5t14.5 -60.5v-4q0 -53 -40 -99q-48 -48 -109 -48q-68 0 -118 59q-31 41 -31 88v5zM326 436v-14q0 -31 28 -68q39 -41 89 -41q58 0 97 52q20 32 20 60v12
q-3 33 -22 62q-39 48 -92 48h-6q-55 0 -95 -52q-19 -32 -19 -59z" />
    <glyph glyph-name="uniE757" unicode="&#xe757;" horiz-adv-x="913" 
d="M0 -153q0 43 43 98q51 54 96 74q61 31 142 53q45 9 45 11v13q-33 33 -50 67t-25 79q-41 11 -67.5 37.5t-26.5 71.5v21q9 80 25 80l6 6q0 1 -1 1q0 37 10.5 71t30.5 66q37 61 137 90q48 9 67 9h48q71 0 146 -42q54 -41 65 -69q34 -55 34 -116v-11q22 -15 22 -38
q9 -25 9 -50v-18q0 -52 -26 -74.5t-70 -35.5q-3 -48 -39 -106q-21 -27 -34 -39v-13q3 -3 55 -13q34 -10 73 -25t75 -35.5t65.5 -48t44.5 -63.5q10 -18 13 -51v-22q0 -7 -11 -15h-891q-11 8 -11 15v22zM250 358v-2q0 -29 34 -70q2 -2 2 -6q0 -92 59 -153q44 -36 107 -36h11
q122 0 158 132q-58 -28 -78 -42v-4q0 -34 -36 -48q-12 -2 -14 -2q-42 0 -50 44l-1 6q0 25 14.5 36.5t36.5 16.5q16 0 33 -14h4l97 54v14q36 45 36 67q0 4 1 5q0 19 -16 35q-8 -1 -16 -1.5t-17 -0.5q-98 0 -195 52q-61 -49 -151 -49q-19 -10 -19 -34zM475 -61v-92h401
q0 49 -67 107q-48 35 -105.5 57t-116.5 33v-33q0 -42 -72 -64q-4 -2 -14 -4t-26 -4zM436 -153q2 0 2 2v90q-17 0 -36.5 5.5t-42.5 18.5q-34 19 -34 63v16l1 2l-3 2q-34 -9 -68.5 -19.5t-67.5 -24.5t-63 -34t-54 -47q-33 -42 -33 -73v-1h399zM281 428l2 1h6q44 0 99 30
q22 22 29 22h4q4 0 47 -24q72 -32 159 -32h4q3 0 3 3q0 57 -38 107q-42 42 -98 42h-15q-25 -3 -28 -3q-16 3 -20 3h-16q-68 0 -102 -43.5t-36 -105.5zM239 285q-25 31 -25 72v7q0 26 28 55q0 55 30 115q52 79 152 79q4 0 12 -0.5t21 -1.5q12 1 20.5 1.5t13.5 0.5
q103 0 152 -84q27 -52 27 -107q29 -34 29 -64q0 -39 -25 -73h2q44 21 44 76q-4 64 -14 64q-18 12 -18 21l2 11q0 88 -60 148q-61 55 -175 55q-165 0 -216 -120q-14 -45 -14 -68v-25q0 -12 -21 -24q-10 -33 -10 -56v-10q0 -55 45 -72zM361 74v-58q0 -28 77 -40h10t9 -1
q58 0 89 28q6 8 6 12v59h-1q-38 -19 -88 -19h-13q-50 0 -89 19zM491 164h7q6 0 10 13q-3 16 -15 16q-14 0 -14 -17q2 -12 12 -12z" />
    <glyph glyph-name="uniE758" unicode="&#xe758;" horiz-adv-x="887" 
d="M0 129q0 9 14 14h166q17 -2 17 -15v-35h1q59 19 97 30.5t55 15.5q13 0 18 1q27 0 191 -44q40 -8 48 -16q12 -12 19 -24.5t7 -26.5l150 138q20 12 39 12q40 0 61 -43q4 -8 4 -13v-21q0 -26 -44 -61q-193 -183 -200 -184q-28 -16 -53 -16h-275q-13 0 -15 17v3q3 16 15 16
h267q42 0 76 40q94 87 141 131.5t49 46.5q3 4 5 16q0 26 -32 31q-18 0 -45 -31q-8 -6 -30 -26.5t-60 -55.5q-57 -57 -74 -57q-14 -7 -38 -7h-126q-19 3 -19 19q6 17 17 17h118q33 0 33 28q0 27 -50 33q-156 41 -171 41h-14q-20 0 -133 -39q-32 -8 -32 -12v-237
q-4 -15 -14 -15h-169q-9 0 -14 14v315zM287 531q0 89 87 141q36 15 60 15h20q50 0 103 -47q43 -47 43 -109q0 -90 -86 -140q-15 -7 -17 -7v-26q0 -23 -13 -40.5t-38 -17.5h-4q-40 0 -50 46v83q0 37 43 50q26 0 43 12.5t17 39.5q-7 51 -50 51h-4q-32 0 -46 -35
q-4 -43 -15 -49q-15 -20 -41 -20q-35 0 -50 40q-1 13 -2 13zM35 108v-273h127v273h-127zM323 530q0 -13 17 -15h2q15 0 15 30q4 32 30.5 53t57.5 21q58 0 83 -64q0 -1 3 -18v-13q0 -41 -49 -72q-25 -9 -46 -9q-9 -7 -9 -17v-69q0 -21 18 -21q12 0 15 16v42q0 20 34 26
q71 41 71 112q0 65 -65 107q-27 13 -56 13q-72 0 -110 -71q-11 -25 -11 -51zM392 212q0 36 46 49h6q37 0 51 -41q0 -1 0.5 -4t1.5 -8q0 -22 -14.5 -37t-36.5 -15h-7q-27 0 -45 36q-2 10 -2 14v6zM99 74q15 0 18 -20v-107q-3 -20 -18 -20h-1q-18 0 -18 23v101q0 23 19 23z
M245 -123h4q12 0 16 -18q-4 -18 -16 -18h-2q-18 3 -18 18q5 18 16 18zM96 -106h4q13 0 17 -19q0 -12 -18 -16h-2q-12 0 -17 18q5 17 16 17zM427 208q4 -16 17 -16q16 1 16 16v1q0 16 -18 17q-15 -4 -15 -18z" />
    <glyph glyph-name="uniE759" unicode="&#xe759;" horiz-adv-x="785" 
d="M0 278v143q0 24 25 52q16 14 48 22q50 112 165 170q80 33 125 33h59q62 0 119 -30.5t102 -71.5q47 -51 67 -93q0 -10 18 -12q33 -11 50 -44q7 -18 7 -26v-143q0 -24 -29 -55q-29 -19 -43 -19q-52 -112 -165 -169q-78 -35 -138 -35h-35q-64 0 -127.5 29.5t-107.5 76.5
q-48 51 -61 84q-7 15 -9 15q-22 2 -47 24q-23 29 -23 49zM75 235h634q13 0 32 16q14 19 14 36v127q0 20 -15 35t-35 15h-625q-20 0 -35 -15t-15 -35v-127q0 -40 45 -52zM678 495v1q-3 12 -45 66q-104 107 -241 107q-134 0 -235 -102q-40 -48 -50 -72h571zM282 49
q57 -19 102 -19h17q103 0 199 75q5 5 17.5 18t26 29t24 30.5t10.5 21.5h-571v-1q52 -104 175 -154zM505 406l2 1h34q2 0 26 -76q2 0 14 44q11 31 12 32h33q4 0 26 -76q3 3 25 75l2 1h35q2 0 2 -2q-22 -63 -32.5 -94.5t-11.5 -33.5h-37q-3 0 -24 68q-2 0 -23 -64q-1 -4 -3 -4
h-35q-3 0 -20 54q-10 26 -16 45t-9 30zM72 407h34q3 0 25 -76q2 0 26 75l2 1h32q4 0 26 -75h2q22 72 25 75h34q2 0 2 -3l-43 -126l-2 -1h-35q-2 1 -25 68q-20 -61 -25 -68h-35q-4 0 -17 46q-12 35 -19 55.5t-9 27.5zM287 406l2 1h35q2 -4 25 -76q2 0 25 74l2 2h33
q6 -5 25 -76h2q22 76 26 76h34q2 0 2 -2q-17 -52 -28 -83.5t-16 -44.5h-36q-2 0 -6 15.5t-16 44.5q-3 8 -4 8q-22 -66 -24 -68h-36q-4 0 -14 40q-11 29 -18.5 51.5z" />
    <glyph glyph-name="uniE760" unicode="&#xe760;" horiz-adv-x="896" 
d="M0 98v591q0 2 8 8h880q2 0 8 -8v-591q-4 -9 -15 -9h-206q-2 0 -2 -3q3 0 7 -37v-35q0 -35 -29 -96q-25 -44 -66.5 -74t-91.5 -40q-8 -2 -11 -3h-68q-5 3 -31 8q-93 31 -137 108q-30 58 -30 97v35q0 15 7 39l-2 1h-206q-10 0 -15 9zM29 122l3 -1h202q26 64 84 103.5
t127 39.5h6q108 0 185 -95q26 -41 26 -48h202l3 1l-1 7v420q0 2 -3 2h-830q-3 0 -3 -2v-420zM29 584l3 -1h832l3 1l-1 8v9l1 6l-4 2h-630q-2 0 -2 2v27q0 2 2 2h630q1 0 4 4l-1 5v18h-836v-75zM735 430v70q0 25 19 25h82q19 0 19 -24v-70q0 -24 -17 -24h-87q-16 0 -16 23z
M735 358q0 21 13 21h96q11 -5 11 -22v-73q0 -22 -18 -22h-85q-17 0 -17 25v71zM57 422v88q0 11 16 15h84q18 -3 18 -16v-86q-4 -16 -15 -16h-88q-15 5 -15 15zM57 363q1 16 13 16h92q9 0 13 -15v-86q-4 -16 -15 -16h-88q-15 5 -15 15v86zM519 217q17 -22 30 -66
q15 -61 15 -102l3 -1h79l2 1q0 38 -31 93q-38 55 -98 78v-3zM250 48h79q3 0 3 2q0 55 22 124q14 30 23 43v3q-36 -9 -82 -58q-41 -50 -47 -113zM518 -156h3q37 14 78 55q38 53 38 68q6 9 10 37q0 7 1 12q-2 0 -2 1l-11 -1h-59l-11 1q-1 -1 -1 -3q0 -38 -15 -101
q-15 -46 -31 -69zM278 -76q40 -56 97 -80h2v3q-26 39 -34 82t-12 88l-11 -1h-59q-6 0 -10 1q-1 -1 -3 -1q0 -38 30 -92zM463 16v-178l1 -2q18 9 31 31.5t21.5 49.5t12.5 54t4 45q-3 0 -3 1l-8 -1h-44q-7 0 -12 1q-1 -1 -3 -1zM397 -127q19 -30 35 -37l1 2v178q-2 0 -2 1
l-13 -1h-44l-6 1q-1 -1 -5 -1q0 -74 34 -143zM463 50l2 -2h66l2 1q0 54 -22 116q-24 55 -47 63l-1 -2v-176zM363 49l2 -1h66q2 0 2 2v176l-1 2q-23 -10 -42 -52q-14 -27 -22 -84q-4 -4 -5 -43zM201 468v25q0 2 3 3h228q2 0 3 -3v-25q-1 -4 -9 -4h-216q-8 0 -9 4zM475 469v22
q0 2 5 5h226q2 0 3 -3v-19q0 -3 1 -4q0 -6 -10 -6h-215q-8 0 -10 5zM201 435q0 2 3 3h228q2 0 3 -3v-22q0 -4 -3 -6h-228q-3 2 -3 6v22zM475 413v19q2 6 3 6h228q2 0 3 -3v-25q0 -1 -3 -3h-228q-3 2 -3 6zM204 294h112q4 -1 4 -9v-15q0 -6 -5 -8h-111q-1 0 -3 3v22q1 7 3 7z
M592 290q0 3 3 4h111q2 0 3 -4v-25q0 -1 -3 -3h-111q-1 0 -3 3v25zM201 348q0 2 3 3h112q4 -1 4 -6v-18q0 -5 -5 -7h-109q-2 0 -5 4v24zM592 323v26q0 2 2 2h113q2 0 2 -2v-26q-1 -3 -7 -3h-104q-6 0 -6 3zM88 491v-51q0 -2 2 -2h52l2 6v47q0 3 -3 3h-51q-2 -2 -2 -3z
M90 294h50q3 0 4 3v50q0 2 -3 2h-53v-53q0 -2 2 -2zM768 484v-36l-1 -7q1 -1 1 -3h52q2 0 2 2v51q0 3 -2 3h-52q0 -3 -1 -3zM767 298q1 -1 1 -4h52q2 0 2 2v53h-53l-2 -1l1 -8v-36zM117 640h25q4 -1 4 -6v-22q0 -2 -4 -3h-25q-3 2 -3 6v17q0 8 3 8zM172 612v22q0 6 3 6h25
q2 0 3 -3v-26q0 -2 -2 -2h-26q-1 0 -3 3zM57 637q0 2 3 3h25q2 0 3 -3v-25q0 -1 -3 -3h-25q-1 0 -3 3v25z" />
    <glyph glyph-name="uniE761" unicode="&#xe761;" horiz-adv-x="930" 
d="M0 146v190q0 32 27 51q-27 27 -27 55v190q0 48 59 68h803q29 0 48.5 -19.5t19.5 -48.5v-190q0 -28 -27 -55q27 -19 27 -51v-190q0 -47 -56 -68q-8 -1 -15 -1h-12h-373q6 -7 6 -14v-22q-4 -10 -15 -10q-9 0 -15 10v22q0 7 7 14h-374q-57 0 -78 44q-5 17 -5 25zM32 440
q0 -31 44 -36h776q17 0 31.5 8t14.5 28v195q-10 33 -36 33h-794q-25 0 -36 -33v-195zM76 109h776q17 0 31.5 8.5t14.5 27.5v191q-7 36 -36 36h-794q-28 0 -36 -36v-191q0 -31 44 -36zM93 236v14q0 34 46 58q12 3 21 3h6q49 0 67 -59v-14q0 -47 -55 -66l-15 -2q-70 12 -70 66
zM93 545q0 34 46 58q12 3 21 3h6q49 0 67 -59v-14q0 -47 -55 -66l-17 -1q-68 14 -68 66v13zM124 241q0 -33 41 -39q26 0 35 33v10q-6 34 -34 34h-10q-23 0 -32 -38zM124 537q0 -34 41 -39q26 0 35 32v10q-6 34 -34 34h-10q-25 0 -32 -37zM387 -122q0 29 17 29h2
q15 -3 15 -14q0 -34 -19 -34q-15 0 -15 19zM509 -142q0 34 17 34h2q15 -3 15 -16q0 -32 -17 -32h-1q-16 3 -16 14zM465 -181q0 11 31 18h1q16 -1 16 -15q0 -18 -33 -22q-15 0 -15 19zM406 -169v1q0 16 18 16q26 -14 26 -26v-2q0 -13 -17 -15q-27 12 -27 26zM61 -124
q4 16 17 16h15q16 -3 16 -16v-1q0 -16 -19 -16h-12q-17 5 -17 17zM15 -108h16q17 -5 17 -17q-6 -16 -17 -16h-12q-19 0 -19 16v1q1 16 15 16zM326 -108h15q16 -3 16 -16v-1q0 -16 -19 -16h-12q-13 0 -17 16q5 17 17 17zM185 -124q4 16 17 16h15q16 -3 16 -16v-1
q0 -16 -19 -16h-12q-17 5 -17 17zM418 -68q0 11 29 19h3q13 0 15 -17q0 -13 -30 -20h-2q-15 0 -15 18zM822 -125v1q1 16 15 16h15q17 -3 17 -17q-4 -16 -17 -16h-12q-18 0 -18 16zM124 -125v1q1 16 15 16h15q17 -3 17 -17q-4 -16 -17 -16h-11q-19 0 -19 16zM776 -108h15
q15 -3 15 -16v-1q0 -16 -18 -16h-12q-17 5 -17 17q3 16 17 16zM698 -124q1 16 15 16h15q17 -5 17 -17q-4 -16 -17 -16h-12q-18 0 -18 16v1zM589 -108h15q17 -5 17 -17q-4 -16 -17 -16h-11q-19 0 -19 16v1q1 16 15 16zM883 -124q4 16 17 16h15q15 -3 15 -16v-1q0 -16 -18 -16
h-12q-17 5 -17 17zM480 -76v7q3 15 16 15q29 -11 29 -25q-5 -17 -17 -17q-6 0 -28 20zM248 -125v1q1 16 15 16h15q17 -3 17 -17q0 -11 -17 -16h-13q-17 3 -17 16zM652 -108h15q15 -3 15 -16v-1q0 -13 -16 -16h-14q-17 5 -17 17q0 13 17 16zM450 5q0 4 10 11h10q2 0 10 -11
v-22q0 -13 -17 -15q-10 0 -13 15v22zM652 280q15 0 15 -18q-5 -14 -17 -14t-15 17q0 13 17 15zM776 576q15 -1 15 -15v-2q0 -13 -17 -15q-10 0 -15 17q3 15 17 15zM728 218q0 9 11 15h6q14 0 16 -17q0 -11 -16 -14h-1q-16 3 -16 16zM652 576q15 0 15 -19q-4 -13 -17 -13
q-10 0 -15 17q0 12 17 15zM791 216v3q0 14 14 14h3q14 0 14 -14v-6q0 -4 -10 -11h-7q-14 0 -14 14zM511 265q0 13 17 15q12 0 15 -17q0 -12 -17 -15q-12 0 -15 17zM528 576q12 0 15 -17q0 -13 -17 -15q-12 0 -15 17q0 12 17 15zM615 233h6q14 0 16 -17q0 -11 -16 -14h-6
q-11 6 -11 16q0 9 11 15zM739 528h6q14 0 16 -17q0 -12 -16 -13h-1q-16 1 -16 15q0 9 11 15zM681 233h3q10 0 14 -10v-10q0 -4 -10 -11h-7q-14 0 -14 14v3q0 14 14 14zM776 280q15 -1 15 -15v-2q0 -12 -17 -15q-10 0 -15 17q5 15 17 15zM791 511v4q0 13 14 13h3q14 0 14 -13
v-7q0 -3 -10 -10h-7q-14 0 -14 13zM604 513q0 9 11 15h6q14 0 16 -17q-4 -13 -16 -13h-1q-16 1 -16 15zM557 233h7q3 0 10 -10v-5q0 -10 -10 -16h-7q-15 3 -15 16q3 15 15 15zM574 559v2q2 15 15 15q9 0 15 -10v-12q-4 -10 -17 -10q-11 0 -13 15zM698 559v2q2 15 15 15
q9 0 15 -10v-12q-6 -10 -15 -10q-15 2 -15 15zM574 263v2q2 15 15 15q9 0 15 -10v-12q-6 -10 -15 -10q-15 2 -15 15zM713 280q9 0 15 -10v-12q-6 -10 -15 -10q-15 2 -15 15v2q2 15 15 15zM681 528h3q10 0 14 -10v-10q0 -3 -10 -10h-7q-14 0 -14 13v4q0 13 14 13zM557 528h7
q3 0 10 -10v-5q0 -9 -10 -15h-7q-15 2 -15 15q3 15 15 15z" />
    <glyph glyph-name="uniE762" unicode="&#xe762;" horiz-adv-x="815" 
d="M0 -53v602q0 34 59 75q134 72 336 72h25q200 0 333 -71q45 -28 55 -55q7 -13 7 -21v-602q0 -27 -40 -61q-32 -25 -77.5 -41.5t-94.5 -26.5t-98 -14t-88 -4h-22q-200 0 -334 71q-61 42 -61 76zM33 538q0 -45 130 -88q111 -31 246 -31q222 0 343 76q29 26 29 43v7
q0 40 -106 80q-123 38 -249 38h-37q-191 0 -318 -70q-38 -27 -38 -51v-4zM207 -147q95 -20 184 -20h33q170 0 297 57q60 31 60 64v133q-36 -28 -79.5 -45.5t-90.5 -27.5t-94.5 -14t-91.5 -4h-35q-223 0 -348 83q0 2 -9 8v-133q0 -58 174 -101zM136 263q122 -39 272 -39
q210 0 334 69q39 29 39 49v136q-32 -28 -79 -46t-99 -28t-103.5 -14t-92.5 -4q-246 0 -368 87q0 2 -6 5v-136q0 -39 103 -79zM33 256v-65q16 -3 16 -15v-3q-3 -15 -16 -15v-12q0 -31 80 -69q0 14 18 17q16 -4 16 -16v-3q0 -3 -4 -10q101 -27 122 -27q3 7 13 7q7 0 16 -11
l64 -5q4 16 15 16h3q15 -3 15 -16q8 0 13 -1q14 1 25.5 1h22.5h2q9 16 16 16h4q14 -3 14 -13q76 4 76 11l2 2q2 0 5.5 -0.5l10.5 -1.5q90 18 118 35q4 16 16 16q7 0 11 -4q17 7 31 22q-9 5 -9 15q0 14 18 15q5 0 12 -6q2 10 2 12v68q-6 -9 -16 -9q-16 3 -16 18q3 15 18 15
q7 0 14 -9v52q-48 -38 -97 -52l1 -9q-3 -15 -18 -15q-14 5 -14 14q-111 -30 -223 -30h-1v-1q8 0 11 -14v-3q0 -13 -18 -15q-12 0 -15 18q0 7 9 14q-117 0 -224 23q-4 -6 -16 -6q-6 0 -14 14q-57 16 -103 42q0 1 -9 7h-1q0 -11 -16 -14zM618 94h3q15 -4 15 -16q0 -18 -19 -18
q-15 6 -15 18q4 16 16 16zM621 191q15 -3 15 -15q0 -18 -18 -18q-16 3 -16 18q5 15 19 15zM211 78q4 16 18 16q16 -4 16 -16v-3q0 -12 -17 -15q-12 0 -17 18zM700 176q5 15 18 15q15 0 16 -18q-3 -15 -18 -15q-16 3 -16 18zM407 78q3 16 18 16q15 -4 15 -16q-1 -18 -16 -18
q-14 0 -17 18zM523 94q15 -4 15 -16q-1 -18 -17 -18q-13 0 -16 18q3 16 18 16zM64 225q5 15 18 15q16 -3 16 -15v-3q0 -15 -19 -15q-15 6 -15 18zM113 176q5 15 18 15q16 -3 16 -15v-3q0 -15 -20 -15q-14 6 -14 18zM162 127q5 15 18 15q16 -3 16 -15v-3q0 -15 -20 -15
q-14 6 -14 18zM278 142q16 -3 16 -15v-3q0 -15 -20 -15q-14 6 -14 18q5 15 18 15zM211 176q5 15 18 15q16 -3 16 -15v-3q0 -15 -20 -15q-14 6 -14 18zM669 142q15 0 16 -18q-3 -15 -19 -15q-15 5 -15 18q5 15 18 15zM376 142q15 -3 15 -15v-3q0 -15 -19 -15q-14 6 -14 17
q0 15 18 16zM327 94q15 -4 15 -16v-3q0 -12 -16 -15q-17 5 -17 17q0 14 18 17zM82 142q16 -3 16 -15v-3q0 -12 -17 -15q-12 0 -17 18q5 15 18 15zM474 142q15 -3 15 -15v-3q0 -15 -19 -15q-14 6 -14 18q3 15 18 15zM505 175q0 15 18 16q15 -3 15 -15v-3q0 -13 -18 -15
q-10 0 -15 17zM572 142q14 0 15 -18q-3 -15 -19 -15q-14 6 -14 17q0 15 18 16zM309 176q5 15 18 15q15 -3 15 -15v-3q0 -15 -19 -15q-14 6 -14 18z" />
    <glyph glyph-name="uniE763" unicode="&#xe763;" horiz-adv-x="777" 
d="M8 620q195 65 348 65h65q161 0 350 -67q6 -73 6 -107v-51q0 -477 -377 -647l-11 -3q-71 20 -179 109q-210 186 -210 541v51q0 26 2 53t6 56zM263 -25q71 -62 126 -84q93 45 154 108t96.5 139.5t49.5 165t14 185.5q0 38 -3 75q-156 47 -290 47h-43q-133 0 -289 -47
q-3 -34 -3 -79q0 -355 188 -510zM227 225v90q0 3 3 3h333q3 0 3 -3v-90q0 -83 -89 -140q-38 -19 -71 -19h-19q-80 0 -137 81q-23 41 -23 78zM239 337v25q0 109 100 149q26 8 39 8h37q56 0 107 -58q31 -38 31 -99v-25q0 -3 -3 -3h-49q-4 0 -4 3v30q0 68 -71 94q-16 3 -28 3
h-3q-72 0 -98 -74q-1 -8 -1.5 -13.5t-0.5 -9.5v-30q0 -3 -3 -3h-49q-4 0 -4 3z" />
    <glyph glyph-name="uniE764" unicode="&#xe764;" horiz-adv-x="994" 
d="M0 394q0 4 50 10q18 0 23 1q95 0 117 -69q1 -6 1.5 -11t0.5 -9q0 -62 -85 -80q-7 -3 -28 -3h-7q-7 0 -18 1t-25 3v-84q0 -3 -4 -3h-21q-4 0 -4 3v241zM344 318q0 46 30 66.5t72 20.5q69 0 88 -51q5 -22 5 -36l-3 -2h-160q0 -44 47 -59q7 -2 14 -2.5t14 -1.5q34 0 63 20
q1 0 18 -14v-1q-31 -25 -79 -25h-11q-74 0 -96 67q-1 5 -1.5 9.5t-0.5 8.5zM72 253q60 0 82 42q4 15 4 27q-11 62 -77 62h-11q-40 -2 -41 -7v-115q0 -5 43 -9zM819 237v230q0 3 3 3h25q4 0 4 -3v-144l105 81h34q4 -1 4 -3q-30 -22 -56 -41.5t-48 -37.5l102 -86v-1h-39
q-100 84 -102 84v-82q0 -2 -4 -2h-25q-3 0 -3 2zM598 259v2q10 10 22 15h2q23 -22 57 -22h9q37 0 43 23v2q0 24 -74 36q-50 14 -50 46q0 14 8.5 22.5t20.5 13.5t26 7t24 2q47 0 75 -27l-21 -16q-25 21 -52 21h-13q-36 -3 -36 -21q0 -23 68 -34q56 -17 56 -47q0 -34 -50 -46
q-7 -3 -23 -3h-22q-35 0 -70 26zM253 237v230q0 3 3 3h23q4 0 4 -3v-230q0 -2 -4 -2h-23q-3 0 -3 2zM505 336l4 1q-11 47 -54 47h-18q-44 0 -59 -43q-2 -2 -2 -5h129zM176 153v16q0 3 3 3h176q3 0 3 -3v-16q0 -3 -3 -3h-176q-3 0 -3 3z" />
    <glyph glyph-name="uniE765" unicode="&#xe765;" horiz-adv-x="773" 
d="M34 101q2 8 16 85.5t40 227.5q4 29 23.5 42t47.5 13h50q3 0 3 3v66q2 59 40 100.5t93 57.5q11 2 12 4h55q7 -4 29 -8q36 -14 59 -37q25 -21 40 -49q17 -42 17 -62v-68l2 -7h55q47 0 63 -39q8 -18 81 -453q3 -6 12 -59q1 0 1 -2v-21q-1 -2 -2 -6.5t-3 -12.5
q-11 -28 -32.5 -47.5t-50.5 -27.5q0 -1 -2 -1h-593q-33 11 -60 36t-27 63q-3 0 -3 2v10q3 0 34 190zM76 -163q21 -8 25 -8h571q25 1 52 27q20 29 20 53q-7 35 -29.5 161t-60.5 344q-8 26 -35 26h-58l-2 -6v-89q0 -1 -9 -9h-10q-7 5 -10 12v90q0 2 -2 2h-283q-2 0 -2 -2v-93
q0 -1 -9 -9h-8q-7 0 -12 11v91q0 2 -3 2h-44q-38 0 -43 -17q-4 0 -13 -61l-81 -454q0 -44 46 -71zM196 101v4q0 68 52 129q61 59 139 59q109 0 170 -103q20 -48 20 -70v-32q0 -39 -35 -97q-64 -78 -154 -78h-2q-86 0 -151 74q-39 57 -39 114zM225 104q0 -35 20 -78
q26 -48 87 -74q11 -4 24.5 -6.5t29.5 -3.5q57 0 98.5 32.5t58.5 86.5q5 30 5 33v16q0 57 -48 109q-51 45 -112 45q-84 0 -137 -74q-26 -47 -26 -86zM245 469h283q2 0 2 3v66q0 44 -40 91q-39 35 -84 42h-31q-45 0 -95 -47q-37 -43 -37 -105v-47q0 -3 2 -3zM299 124
q6 0 64 -61q13 11 39.5 35.5t66.5 64.5q5 5 12 6q15 -4 15 -16q0 -4 -17.5 -22t-40 -39t-43.5 -40t-27 -24h-9q-76 70 -76 77v9q7 10 16 10z" />
    <glyph glyph-name="uniE766" unicode="&#xe766;" horiz-adv-x="896" 
d="M0 -189v819q0 12 21 12h42v37q0 18 13 18h438q9 0 46 -40q82 -78 129.5 -124.5t61.5 -61.5l1 -7v-23h1q12 47 30 61q19 11 31 11h7q19 0 55 -18q20 -20 20 -40v-6q0 -8 -74 -239q-33 -113 -38 -113l-32 -44v-182q0 -16 -21 -16h-43v-42q-1 -13 -12 -13h-665q-8 0 -11 11z
M725 -117v130l-40 -51q-4 -2 -6 -2h-1q-14 0 -14 14q0 10 -0.5 53.5t-1.5 121.5q63 200 63 203v100h-212q-13 1 -13 14v204h-409v-787h634zM29 -173h631v28h-576q-21 0 -21 16v743h-36v-785q0 -2 2 -2zM170 607q2 11 11 11h199q13 0 13 -14v-137q-1 -15 -12 -15h-198
q-13 3 -13 13v142zM693 156l77 -25v1q99 312 99 315v6q0 24 -52 33q-19 0 -28 -22l-97 -308h1zM197 591v-111h168v111h-168zM528 480h175q-10 11 -53.5 52.5t-121.5 116.5v-169zM158 253h407q18 0 18 -12v-4q0 -10 -14 -12h-412q-15 0 -15 15q0 12 16 13zM142 140
q0 13 15 14h413q13 -3 13 -12v-4q0 -10 -15 -12h-410q-16 1 -16 14zM142 338q2 14 14 14h415q12 -1 12 -12v-4q-2 -11 -12 -11h-415q-14 2 -14 13zM156 54h414q10 0 12 -14q-3 -13 -12 -13h-417q-8 0 -11 14q1 13 14 13zM425 -44h199q15 0 15 -15v-1q-3 -12 -13 -12h-205
q-13 1 -13 13v2q0 13 17 13zM691 17q5 5 64 89q-57 19 -67 21v-1z" />
    <glyph glyph-name="uniE767" unicode="&#xe767;" horiz-adv-x="894" 
d="M134 567q139 127 306 127h14q167 0 306 -127q134 -140 134 -317v-6q0 -182 -140 -322q-137 -122 -300 -122h-14q-171 0 -313 134q-127 139 -127 306v14q0 171 134 313zM137 -12q61 -65 94 -81q99 -63 212 -63h8q140 0 255 93q92 74 133 210q11 52 11 96v8q0 138 -93 255
q-57 61 -77 71q-106 73 -229 73h-8q-82 0 -154.5 -31.5t-127 -86t-86 -127t-31.5 -154.5v-8q0 -138 93 -255zM320 151h2q22 0 22 -35q1 -23 31 -56q34 -23 46 -23v190q-31 4 -66 29q-56 47 -56 108q0 81 85 127q9 3 18 5.5t19 4.5v41q1 25 18 25q1 1 5 1q20 -5 20 -19v-46
q34 -3 74 -29q28 -21 28 -34q-4 -22 -21 -22h-2q-10 0 -30 20q-26 19 -49 20v-190q32 0 78 -31q53 -47 53 -107q0 -77 -81 -124q-36 -15 -50 -15v-46q0 -15 -21 -19q-20 0 -22 26v39q0 2 -26 8q-62 26 -87 83q-9 30 -9 49q5 20 21 20zM464 36h1q24 0 58 28q28 31 28 66
q0 51 -52 82q-7 6 -35 12v-188zM409 275q11 -3 12 -3v185q-22 -3 -53 -31q-25 -29 -25 -62q0 -59 66 -89z" />
    <glyph glyph-name="uniE768" unicode="&#xe768;" horiz-adv-x="824" 
d="M0 -93v684l10 32q32 60 97 75h325l31 -10q34 -17 54 -46.5t22 -67.5v-236q-4 -16 -16 -16q-13 0 -16 20v233q0 37 -39 73q-26 19 -68 19h-262q-58 0 -85 -37q-22 -22 -22 -70v-622q0 -58 37 -85q23 -22 70 -22h262q47 0 72 24q35 33 35 68v231q0 18 15 22h2q15 -6 15 -16
v-236q0 -29 -19 -64q-32 -41 -55 -47q-5 -4 -33 -13h-325l-32 10q-27 15 -48 40t-27 57zM283 248v2q0 14 21 15h463v1l-14 15q-54 57 -82.5 84.5t-28.5 29.5v4q0 13 17 16q8 0 51 -46l114 -114v-12q0 -1 -130 -130q-27 -30 -35 -30q-13 0 -17 16q0 9 45 51q78 80 80 80v3
h-461q-17 0 -22 9z" />
    <glyph glyph-name="uniE769" unicode="&#xe769;" horiz-adv-x="993" 
d="M553 -171v512q0 8 -1 13q0 7 10 11l10 -2h249q53 0 98.5 -30t63.5 -80q10 -31 10 -48v-39q0 -32 -26 -81q-23 -37 -64 -57t-84 -20h-134l-8 -1v-190q0 -2 -5 -5h-110q-9 0 -10 7zM0 62v48q1 55 32 124q35 68 95.5 105t138.5 37h9q117 0 190 -87q43 -61 43 -111
q-4 -3 -9 -3h-105q-4 0 -15 32q-39 63 -107 63h-4q-97 0 -132 -101q-6 -13 -12 -61v-45q0 -34 22 -85q38 -74 126 -74q31 0 51.5 9t34.5 25.5t22 38t14 47.5q5 3 8 3h102q8 -2 8 -4v-3q0 -44 -31 -107q-49 -80 -132 -103q-27 -10 -62 -10h-34q-96 0 -179 78q-32 38 -53 85.5
t-21 98.5zM676 262l1 -7v-147q2 -3 3 -3h93q100 0 100 76v5q0 79 -96 79h-97z" />
    <glyph glyph-name="uniE770" unicode="&#xe770;" horiz-adv-x="751" 
d="M0 -71q0 8 84 149q28 63 28 126v81q0 201 185 269h3v62q0 69 70 81h14q67 -16 67 -67v-70q0 -5 45 -20q143 -90 143 -224v-73q0 -144 76 -244q36 -57 36 -67v-9q0 -3 -11 -11h-269v-19q0 -68 -76 -93h-28q-56 0 -84 76v36h-269q-3 0 -14 14v3zM698 -49q-98 143 -98 267
v95q0 139 -154 205q-16 4 -32.5 6.5t-35.5 4.5q-49 0 -91 -18.5t-72 -50t-47 -74t-17 -90.5v-95q0 -108 -95 -247v-3h642zM373 -161h8q42 0 51 51v8l-3 14h-101q-3 0 -8 -17q9 -56 53 -56zM339 619v-54h3q14 0 36 3q20 -3 37 -3l-3 6v56q-4 31 -31 31h-8q-29 0 -34 -39z" />
    <glyph glyph-name="uniE771" unicode="&#xe771;" horiz-adv-x="783" 
d="M0 -61v17q0 58 29 111t74 88q73 49 131 49q0 -41 158 -163q157 121 157 163q33 0 90 -24q16 -8 32.5 -20t33.5 -26q78 -84 78 -178v-17q0 -61 -36 -92q-33 -36 -173 -36h-365q-36 0 -73 2.5t-67 14.5t-49.5 38t-19.5 73zM176 471q0 61 35 117q70 97 180 97q72 0 130 -43
q86 -72 86 -169v-7q0 -80 -52 -174q-77 -122 -160 -122h-7q-71 0 -140 90q-72 110 -72 206v5zM210 411q0 -18 33 -89q68 -117 144 -117h9q63 0 126 87q43 64 56 145q0 33 -17.5 69t-40.5 59l-1 -5q-29 -59 -146 -59q-48 0 -111 11q-16 0 -27 -7.5t-17.5 -19t-9 -25.5
t-2.5 -28q3 -21 4 -21z" />
    <glyph glyph-name="uniE772" unicode="&#xe772;" horiz-adv-x="772" 
d="M148 151v1h-2q-7 0 -19 -0.5t-29 -1.5v2q23 12 39 38t26 57t14 62.5t4 55.5q-1 5 -1 9.5v9.5v22q0 210 134 267q30 13 71 13h5q103 0 164 -99q38 -74 38 -182v-17v-11t-1 -12q0 -77 33 -157q14 -27 40 -50q9 -6 9 -7h-2q-17 3 -35 5.5t-36 4.5h-1v-1q79 -27 126 -91.5
t47 -148.5q0 -36 -10.5 -59t-29 -36t-44.5 -18t-57 -5q-60 1 -102 1.5t-66 0.5h-154q-24 0 -66 -0.5t-103 -1.5q-67 0 -103.5 25t-36.5 93q0 75 40 137t108 94zM253 274q56 -92 134 -92q85 0 142 113q27 66 27 132q-9 2 -66 9v1q16 12 16 33q0 24 -16 44q-96 -68 -157 -87
q-30 -14 -116 -31q5 -55 36 -122zM239 150q72 -73 108.5 -110t38.5 -39q2 2 153 165v1h-1q-50 0 -65 -12v1l18 40q-49 -45 -105 -45q-54 0 -107 47v-2q29 -63 29 -65q-18 13 -44 16q-7 1 -13 1.5t-12 1.5z" />
    <glyph glyph-name="uniE773" unicode="&#xe773;" horiz-adv-x="988" 
d="M345 174q0 68 87 68h469q87 0 87 -63v-5q0 -63 -87 -63h-469q-63 0 -79 34q-8 18 -8 27v2zM345 -73q12 61 61 61h524q58 -13 58 -56v-17q0 -45 -68 -56h-505q-70 7 -70 61v7zM345 434q0 53 70 60h505q68 -9 68 -55v-17q0 -43 -58 -56h-524q-41 0 -61 51v17zM29 538
q17 0 31 -17q34 19 61 19h5q25 0 53 -12q65 85 99 112q6 2 12 2h2q22 0 29 -34q0 -16 -99 -126q11 -15 15 -51q0 -76 -82 -109q-7 -1 -12.5 -1.5t-9.5 -0.5h-22q-53 0 -89 70q-8 22 -8 44q0 9 8 36q-16 11 -22 24v15q6 29 29 29zM94 283q28 5 32 5q71 0 106 -80q2 -26 5 -31
q0 -80 -92 -109l-22 -3q-72 0 -104 80q-5 20 -5 34q0 72 80 104zM14 -75q0 78 85 106q5 3 12 3h22q71 0 101 -88q0 -20 3 -21q0 -38 -20.5 -64t-59.5 -43q-12 -5 -31 -5q-75 0 -107 78q-5 23 -5 34zM46 -75q0 -53 60 -78q5 0 17 -2q56 0 80 63v17q0 66 -80 77
q-75 -12 -75 -75q-2 0 -2 -2zM109 99h24q43 0 67 56q3 14 3 22q0 58 -63 77h-24q-45 0 -68 -63q0 -10 -2 -14q0 -52 63 -78zM126 351q77 14 77 78v5l-3 17h-4q-48 -70 -70 -71q-17 0 -75 61h-3q0 -10 -2 -10q12 -80 80 -80zM123 463h3q1 5 29 39q-5 2 -13 4t-19 3
q-9 0 -36 -12q29 -32 36 -34z" />
    <glyph glyph-name="uniE774" unicode="&#xe774;" horiz-adv-x="950" 
d="M453 109h10q49 -89 57 -91q324 134 334 134v-148q0 -14 -286 -129q-93 -48 -115 -48v282zM869 352q9 -9 33 -148q-352 -153 -363 -153q-77 119 -81 148zM148 161q1 10 9 10l63 -58l195 67l5 -9v-330q0 -9 -10 -9l-262 191v138zM110 424h9q257 -215 258 -220
q0 -9 -153 -62q0 3 -224 191q35 31 62.5 54t47.5 37zM301 552q71 -49 113.5 -76.5t57.5 -32.5v-15l-147 -57h-5q-153 104 -167 124v5q137 52 148 52zM530 438v9q11 0 181 91q99 -53 119 -76q-162 -77 -171 -77zM339 271q101 50 176 71q105 -49 105 -57v-5q-188 -76 -200 -76
q-14 5 -81 67zM387 624v5q134 57 152 57q110 -43 124 -57v-5l-157 -72q-106 54 -119 72zM711 571v53l5 10q226 -115 234 -115v-10q0 -6 -72 -71h-5v28q0 6 -162 105zM439 681l-91 -52v-81h-9q-42 25 -43 28q-162 -61 -162 -76q-2 -10 -3.5 -19t-1.5 -19h-10q0 6 -33 76
q45 22 132 57t221 86zM668 309v52q0 12 172 96l5 -10v-71q0 -16 -172 -77zM678 614l4 -9v-53q-29 -25 -152 -90h-10v71q0 7 158 81zM492 419l4 -10v-43q-21 -22 -167 -81l-4 10v47q18 20 167 77zM367 533v67q121 -51 129 -71v-67l-4 -10q-83 44 -125 81zM525 409q1 10 9 10
q110 -40 120 -58v-62q-105 38 -129 58v52zM148 438v24h5q66 -43 103.5 -70.5t48.5 -39.5v-43q0 -10 -9 -10z" />
    <glyph glyph-name="uniE775" unicode="&#xe775;" horiz-adv-x="969" 
d="M83 607h500q83 -18 83 -85v-38h220q83 -18 83 -85v-355q-18 -84 -83 -84h-23v-74q0 -35 -49 -42q-27 0 -114 116h-314q-83 18 -83 84v39h-34q-86 -116 -121 -116q-42 13 -42 43v73h-23q-83 18 -83 85v354q18 85 83 85zM95 145h64q8 -2 8 -8v-77l79 85h326q34 4 34 34v332
q-4 34 -34 34h-477q-34 -4 -34 -34v-332q4 -34 34 -34zM397 21h326l79 -85v78q1 7 8 7h64q34 4 34 35v331q-5 35 -34 35h-208v-254q-16 -85 -83 -85h-220v-27q5 -35 34 -35z" />
    <glyph glyph-name="uniE776" unicode="&#xe776;" horiz-adv-x="704" 
d="M0 -143v772q14 47 47 47h491q148 -131 166 -152v-667q-14 -47 -48 -47h-609q-47 14 -47 47zM54 622v-758h596v623h-143q-6 0 -6 6v129h-447zM115 297h474q6 -1 6 -7v-40q0 -7 -6 -7h-474q-7 0 -7 7v40q1 7 7 7zM108 74q1 7 7 7h474q6 -1 6 -7v-41q0 -6 -6 -6h-474
q-7 0 -7 6v41zM108 182q1 7 7 7h474q6 -1 6 -7v-40q0 -7 -6 -7h-474q-7 0 -7 7v40zM108 493v41q1 7 7 7h325q7 -1 7 -7v-41q0 -6 -7 -6h-325q-7 0 -7 6zM555 541h47q-14 16 -25.5 26.5t-21.5 17.5v-44z" />
    <glyph glyph-name="uniE777" unicode="&#xe777;" horiz-adv-x="940" 
d="M0 344v9q0 37 88 49q31 3 90 5.5t147 4.5q76 240 112 273q17 15 35 15q53 0 107 -184q32 -84 36 -104q281 -5 302 -26q23 -18 23 -37v-5q0 -41 -95 -103l-138 -109q72 -231 72 -268v-13q-6 -51 -42 -51h-4q-39 0 -131 72q-3 0 -132 90q-205 -144 -231 -156q-25 -6 -33 -6
q-43 7 -43 40q-1 0 -1 13v11q0 34 71 270q-194 145 -216 169q-17 29 -17 41z" />
    <glyph glyph-name="uniE778" unicode="&#xe778;" horiz-adv-x="999" 
d="M96 1v334q0 4 4 4h122q86 0 118 -86q3 -22 3 -32q0 -59 -58 -99q39 -49 59 -73t21 -25v311q0 4 4 4h220q4 -1 4 -4v-39q52 43 113 43q54 0 91.5 -27.5t66.5 -80.5q5 -10 8.5 -26t5.5 -38q-2 -26 -6 -26h-62l-4 2l2 20v6q0 68 -72 95q-7 4 -22 4h-12q-68 0 -95 -78
q-1 -7 -1.5 -12t-0.5 -9v-4q0 -73 82 -98l19 -2q1 0 7.5 0.5t18.5 1.5v-64q0 -3 -6 -6h-24q-90 0 -146 90q-13 24 -17 45h-104v-131q0 -4 -4 -4h-138l-84 113h-43v-109q0 -4 -4 -4h-62q-4 0 -4 4zM0 -28v390q0 70 74 109q200 63 427 63q217 0 428 -63q70 -43 70 -109v-386
q-3 -20 -20 -20h-3q-17 0 -20 25v381q0 54 -64 76q-192 53 -394 53q-219 0 -414 -61q-41 -29 -41 -68v-390q0 -55 64 -76q195 -53 394 -53q194 0 404 55q18 -6 18 -26t-104 -37q-157 -35 -319 -35q-218 0 -430 62q-70 43 -70 110zM689 169q0 16 19 17q6 0 86 -80h72
q3 0 63 -62l-4 -2h-94v-96h-2q-2 0 -62 63v70q-78 80 -78 82v8zM219 173q20 0 37 10.5t17 32.5v11q-8 41 -41 41h-66v-95h53zM435 268v-74h104q0 25 29 74h-133z" />
    <glyph glyph-name="uniE779" unicode="&#xe779;" horiz-adv-x="986" 
d="M0 -124v31q0 297 290 455q108 45 205 45q68 -5 125 -18v-9q-62 -73 -62 -76l-32 5h-44q-243 0 -362 -273q-8 -37 -14 -67.5t-8 -56.5q5 -27 5 -45v-18q0 -42 -54 -49q-49 0 -49 76zM384 -97q0 57 285 383q19 38 130 143l4 -9q-111 -332 -245 -584q-34 -27 -54 -27h-22
q-98 21 -98 94zM843 246h9q134 -142 134 -370q0 -76 -54 -76q-49 9 -49 49v22q0 15 5 23q0 132 -80 254z" />
    <glyph glyph-name="uniE780" unicode="&#xe780;" horiz-adv-x="1006" 
d="M0 -195q0 142 145 197l98 42q49 24 49 51q1 5 1 28v12q0 25 -15 44q-30 62 -30 80q-9 0 -16 8.5t-11.5 20.5t-7.5 24.5t-4 19.5q0 23 17 46q-16 63 -16 116q0 126 99 172q53 21 96 21h22q56 0 91 -35q0 -4 20 -9q33 14 84 18q79 0 107 -37q20 -5 35.5 -12.5t24.5 -19.5
q31 -40 31 -91v-20q0 -43 -18 -99q13 -14 13 -34v-4q-6 -65 -31 -65l-13 -38q-3 -17 -28 -56q-1 -12 -2 -12l1 -2v-8q0 -1 -1 -1l1 -3v-18q0 -25 16 -35q6 -8 38 -23t92 -39q40 -16 79 -57q39 -47 39 -117q-6 -3 -11 -3t-10.5 0.5t-12.5 1.5l-19 -2q-2 0 -6 0.5t-11 1.5
l-16 -2q-2 0 -6 0.5l-12 1.5l-18 -2q-2 0 -6 0.5l-12 1.5l-19 -2q-7 1 -11.5 1.5t-8.5 0.5q0 -2 -2 -2q9 -27 9 -66l-3 -1h-829q-2 0 -2 2v3zM253 331q6 -39 19 -39h12q3 0 7 -33q6 -23 15.5 -42.5t24.5 -34.5q48 -48 88 -48q14 0 30.5 8t31.5 20t26.5 26.5t15.5 28.5
q20 35 20 65q1 10 5 10h16q14 14 14 43q0 18 -21 25v3q25 72 25 123v12q0 2 2 4q0 51 -31 86q-26 20 -54 20q-3 1 -13 17q-26 19 -63 19h-13q-109 0 -144 -81q-11 -31 -11 -62v-26q0 -38 18 -112q-20 -12 -20 -32zM50 -157h734q-3 30 -28 65q-23 22 -49.5 38t-57.5 26
q-57 23 -103 45q-26 -46 -79 -65q-24 -7 -40 -7h-20q-63 0 -113 60q-6 11 -9 12q-39 -23 -123 -54q-78 -34 -100 -79q-12 -32 -12 -41zM566 201q37 -35 68 -35q39 0 88 58q23 48 23 72q2 11 5 11h14q13 12 13 38q0 19 -19 23v3q23 66 23 118v3q0 76 -51 94q-29 5 -29 9
q-15 27 -59 27h-10q-47 -2 -47 -6q42 -40 42 -121q0 -49 -20 -121q14 -14 14 -40v-2q0 -42 -22 -67q-17 -6 -17 -12q-5 -25 -16 -52zM684 7v-2q83 -32 126 -98h150q0 22 -26 60q-43 38 -125 68q-36 13 -59 28q-12 -16 -23 -29q-26 -23 -43 -27zM417 -12q68 0 96 60
q-17 20 -17 38q-1 4 -1 12v19h-2q-41 -26 -70 -26h-9q-36 0 -76 28q-2 -2 -2 -3v-15q0 -33 -16 -52v-3q31 -58 97 -58zM546 85q34 -49 81 -49q1 0 1 1q2 0 3 -1q63 0 87 53q-14 20 -14 34q0 3 -1 7v9.5t-1 12.5q-37 -24 -64 -24h-8q-37 0 -71 29q-6 15 -8 15
q-13 -19 -13 -34v-6q0 -47 8 -47z" />
    <glyph glyph-name="uniE781" unicode="&#xe781;" horiz-adv-x="953" 
d="M63 150q0 48 69 76q15 3 24 3h9q-13 12 -37 12h-10l-16 -1q16 46 60 46q41 0 66 -37q32 32 68 32h3q46 0 65 -46q0 -3 1 -6q-1 0 -1 -2q-15 5 -27 5q-36 0 -66 -30v-1q20 12 39 12h10q50 0 72 -60q2 -10 2 -15v-10q0 -33 -32 -57q-1 0 -1 2q0 56 -59 79l-20 3
q-13 0 -32 -8q15 -45 44.5 -97t64.5 -86q43 13 128 19q0 84 100 306l49 94v2h-19q-96 0 -146 -98q-13 -30 -13 -60v-12q0 -15 8 -41q-1 0 -1 -2q-45 18 -74 58t-29 89v9q0 99 107 150q30 8 55 9q40 -3 56 -11h1v2q-58 39 -120 39h-7q-45 0 -85 -25l-2 3v6q0 90 101 125
q20 5 45 6q69 0 130 -46h1q-4 19 -33 52q-29 28 -53 35v2q35 23 63 23h14q54 0 99 -61q27 -42 27 -90q29 3 38 3q89 0 140 -79q14 -31 14 -53v-8q-6 -49 -14 -49q-47 71 -139 71q-11 0 -39 -5v-1q105 0 145 -115q3 -19 3 -33q0 -97 -101 -142q-13 -6 -50 -6q34 43 34 99
q0 84 -86 132q-22 8 -24 8h-5q-50 -164 -50 -294q5 -122 17 -122q57 -20 131 -69q47 -35 55 -46q-8 -7 -17 -16.5t-24 -17.5q-4 -2 -5 -2q-8 0 -37 30q-31 19 -62 19q-46 0 -90 -47q-2 0 -6 -2q-6 0 -41 32q-26 17 -60 17q-45 0 -85 -46q-6 -3 -11 -3t-38 30q-26 19 -59 19
q-46 0 -90 -47l-7 -2q-6 0 -28 19l-31 19q48 38 83 62t60 32q-29 67 -46 158q-8 43 -8 49q-42 -27 -42 -76q0 -38 34 -69v-2l-15 -1h-11q-52 0 -79 63l-3 23q0 57 60 82h1v2h-4q-50 0 -84 -49q-4 -13 -8 -13q-14 23 -14 35v14zM0 566v6q2 4 41 19v2l-14 45l3 2q42 -6 47 -6
q2 6 13 47h3q32 -25 39 -30q0 4 33 35h4q0 -1 17 -46q8 3 20 6t27 7h2l-7 -49q43 -10 49 -16q-30 -34 -30 -39q2 0 33 -33v-4q-35 -10 -44 -19l13 -45l-3 -2q-39 7 -48 7q-11 -46 -11 -48q-4 0 -41 29h-1l-35 -35l-20 46q-5 0 -47 -13q0 2 -2 2q3 15 6 48q-47 12 -47 15
l30 39q-1 0 -30 30zM54 541q0 -50 55 -77q18 -5 28 -5h5q52 0 77 60q3 12 3 26v2q0 55 -66 79l-19 1q-37 0 -60 -25.5t-23 -60.5z" />
    <glyph glyph-name="uniE782" unicode="&#xe782;" horiz-adv-x="875" 
d="M279 540q27 71 162 122q42 13 81 13h28q29 -2 45.5 -3.5t20.5 -1.5q4 25 21 25q15 -5 17 -13v-7q0 -10 -5 -20q116 -40 178 -155q33 -67 33 -119v-8q0 -14 -10 -18h-5q-6 0 -59 33q-30 8 -45 8h-18q-18 0 -59 -15h-7q-11 0 -43 35q-22 18 -33 18q0 -3 -86 -287h-31
q-4 0 -7 8q88 279 88 292q-1 0 -6 0.5t-14 1.5q-16 0 -63 -10q-11 0 -41 43q-47 43 -104 43q-5 -1 -10 -1.5t-10 -0.5q-18 3 -18 10v7zM200 292q44 0 87 -61q105 -107 109 -107q423 -43 423 -50q15 -13 15 -31v-7q0 -33 -48 -36h-370q-98 0 -137 59q-140 134 -140 164v8
q15 61 61 61zM30 239h8q13 0 71 -61q82 -81 135 -132t78 -74h454q19 0 69 -86q30 -38 30 -51v-2q-3 -23 -23 -23h-10q-14 11 -89 101h-431l-86 -98q-4 -3 -10 -3h-5q-20 0 -23 25q0 10 63 102v2q-258 255 -258 259v15q0 22 27 26zM63 452q5 1 10.5 1.5t10.5 0.5h5
q72 0 83 -89q-16 -81 -73 -81q0 -2 -18 -2q-57 0 -81 71v25q0 49 63 74z" />
    <glyph glyph-name="uniE783" unicode="&#xe783;" horiz-adv-x="892" 
d="M0 -91v8q0 33 63 86q120 126 135 126q5 1 8.5 1.5t7.5 0.5h3q26 0 74 -56h2l64 67q-25 0 -33 14q-17 15 -17 33q34 128 51.5 192.5t19.5 68.5q23 23 46 23h180q224 222 226 222l9 2h21q21 0 32 -32v-21q0 -14 -74 -82l-207 -208v-211l125 -121v-173q0 -40 -21 -49h-44
q-19 0 -26 37v152q-26 28 -56 57t-62 61v-135q-22 -72 -34 -112t-16 -48q-16 -12 -23 -12h-21q-21 0 -30 32v8q0 18 40 144v371h-2q-45 -178 -54 -189q5 -12 5 -14q-1 0 -87 -87v-2l19 -21v-2l-154 -156q49 -3 49 -40v-7q0 -25 -18 -37h-40q-26 8 -26 44l-44 -42h-2
q-89 89 -89 107zM443 609v7q0 35 23 58t58 23h7q34 0 57 -24t23 -57v-7q0 -34 -23 -57t-57 -23h-7q-34 0 -57.5 22.5t-23.5 57.5z" />
    <glyph glyph-name="uniE784" unicode="&#xe784;" horiz-adv-x="564" 
d="M101 414q1 4 4 4h19v211q0 36 57 42h2q6 20 21 20h156q12 0 23 -20q57 -10 57 -46v-207h20q3 -1 3 -4v-547q0 -3 -3 -3h-355q-4 0 -4 3v547zM415 418v200q0 20 -33 30v-1q-10 -18 -22 -18h-156q-14 0 -21 19h-6q-24 0 -24 -26v-204h262zM66 418l1 -4v-547q0 -3 -3 -3h-5
q-59 9 -59 57v443q11 54 66 54zM499 418q30 0 58 -36q7 -20 7 -35v-428q0 -49 -58 -55h-5q-4 0 -4 3v547zM160 175q152 72 154 72v2q-16 41 -30 62q-65 -31 -103 -49t-51 -25q25 -55 30 -62zM343 116l35 -4q18 0 18 52v5h2q0 21 -48 21l-78 6q-16 0 -16 -62q0 -15 87 -18z
M282 63v-70h100v70h-100zM138 -163l4 2h14q11 -18 14 -18l7 -1q10 0 22 19h14l4 -2q0 -27 -34 -37h-9q-29 0 -36 37zM351 -161h15q10 -19 23 -19q17 6 17 19h16q4 0 4 -5q0 -27 -36 -34h-8q-34 10 -34 37z" />
    <glyph glyph-name="uniE785" unicode="&#xe785;" horiz-adv-x="980" 
d="M86 366q10 13 337 315q33 16 62 16h5q71 0 127 -74q5 0 19 -14q24 44 60 44h99q63 -15 63 -62q2 -4 2 -19v-148l-2 -23q10 -8 27.5 -24t43.5 -41q51 -37 51 -92q0 -65 -83 -97h-12q-17 0 -25 4v-263q0 -72 -58 -88h-192q-28 0 -39 42v224q0 4 -5 4h-141l-11 -2v-226
q-9 -42 -39 -42h-188q-64 13 -64 65q-3 0 -3 16v273q-24 -3 -28 -3q-63 0 -90 74q-1 7 -1.5 13t-0.5 13q0 52 86 115zM199 -140h150q5 0 5 5v231q0 25 37 35h199q41 -8 41 -35v-231q2 -5 5 -5h141q17 0 21 9v329l-308 284q-289 -270 -307 -282v-331q3 -9 16 -9zM62 246
q5 -32 30 -32h7q16 0 74 60q140 130 215.5 198.5t87.5 78.5q13 5 16 5q15 0 102 -88q14 -12 79.5 -78t195.5 -174q8 -7 16 -7q33 11 33 37v3q0 23 -49 57q-167 157 -254 237.5t-95 86.5q-5 2 -12.5 3.5t-15.5 3.5q-39 0 -76 -49q-167 -151 -254.5 -231.5t-96.5 -94.5
q-3 -4 -3 -9v-7zM694 586v-30q2 -4 104 -97v125q0 3 -10 9h-81q-13 -1 -13 -7z" />
    <glyph glyph-name="uniE786" unicode="&#xe786;" 
d="M20 543q0 53 119 103q119 42 285 42h21q259 0 375 -94q29 -32 29 -51v-591q0 -32 -68 -76q-136 -66 -336 -66h-21q-242 0 -370 89q-34 33 -34 55v589zM54 535q0 -57 181 -99q92 -18 176 -18h46q203 0 329 75q29 23 29 42v2q0 64 -214 107q-97 12 -167 12q-239 0 -359 -81
q-21 -22 -21 -38v-2zM54 91v-130q0 -64 217 -107q89 -12 163 -12q240 0 359 82q22 21 22 37v130q-124 -89 -358 -89h-46q-233 0 -357 89zM54 475v-130q0 -61 194 -103q83 -16 177 -16h13q249 0 363 87q14 22 14 32v130q-116 -91 -382 -91q-263 0 -379 91zM258 48
q42 -7 86 -10.5t92 -3.5q239 0 357 82q22 21 22 37v130q-119 -91 -381 -91q-261 0 -380 91v-130q0 -61 204 -105z" />
    <glyph glyph-name="uniE787" unicode="&#xe787;" horiz-adv-x="854" 
d="M75 -45l162 165q-64 95 -64 204q0 205 196 314q74 36 157 36q198 0 312 -193q36 -79 36 -160q0 -207 -209 -320q-74 -28 -147 -28q-132 0 -245 103q-250 -255 -258 -255h-10q-26 5 -26 25v6q0 14 96 103zM402 37q63 -23 124 -23q174 0 271 165q36 69 36 139v11
q0 166 -162 268q-73 36 -142 36h-11q-179 0 -278 -183q-26 -64 -26 -129q0 -183 188 -284z" />
    <glyph glyph-name="uniE788" unicode="&#xe788;" horiz-adv-x="951" 
d="M472 699q5 0 479 -508q0 -15 -15 -15q-109 118 -118 118v-479q0 -15 -15 -15h-663q-15 0 -15 15v479l-118 -118h-7v22q467 501 472 501zM361 -178v310q0 66 59 66h103q59 0 59 -74v-302h214v501q-317 335 -317 347q-332 -332 -332 -362v-486h214zM383 146v-309
q2 -15 15 -15h162v324q0 12 -29 30h-118q-12 0 -30 -30z" />
    <glyph glyph-name="uniE789" unicode="&#xe789;" horiz-adv-x="723" 
d="M0 619q10 39 16 49q111 -33 122 -38l27 -115h25v170q2 3 3 3h291q3 0 3 -3v-35q75 -8 116.5 -12.5t51.5 -6.5v-1l-20 -115h88v-1q0 -5 -62 -280h-432l7 -30h417q4 0 4 -3v-49q0 -3 -4 -3h-457q-4 0 -28 116l-75 324q-90 26 -93 28v2zM217 286h400q4 0 40 176h-480
q40 -167 40 -176zM245 635v-120h189v120h-189zM509 57q0 49 58 56q21 0 38 -17.5t17 -38.5v-2q-9 -55 -53 -55h-10q-33 0 -50 47v10zM223 46v17q0 32 44 49q6 1 13 1q38 0 55 -44q1 -5 1 -14q0 -43 -50 -55h-10q-38 0 -53 46zM487 515h94v2l11 67q-36 5 -62 7.5t-43 3.5v-80
z" />
    </font>
</defs>
</svg>
